<svg xmlns="http://www.w3.org/2000/svg" xmlns:xlink="http://www.w3.org/1999/xlink" xmlns:svgjs="http://svgjs.com/svgjs" width="512" height="512" x="0" y="0" viewBox="0 0 512 512" style="enable-background:new 0 0 512 512" xml:space="preserve" class=""><g><path fill="#f58a97" d="M385.106 377.62v89.01l2.357 3.342h11.58c9.444 0 17.1-7.656 17.1-17.1v-75.253l-31.037.001z" data-original="#f58a97"></path><path fill="#f07281" d="M412.299 377.619v67.564c0 8.736-6.555 15.928-15.013 16.96l.008.008-1.704 1.688v12.233l1.704 1.588h19.049c9.444 0 17.1-7.656 17.1-17.1v-82.942h-21.144z" data-original="#f07281"></path><path fill="#99e6fc" d="M441.692 113.075a8.204 8.204 0 0 0 8.204-8.204V71.302a8.204 8.204 0 0 0-8.203-8.204h-57.269a8.204 8.204 0 0 0-8.204 8.204v33.569a8.204 8.204 0 0 0 8.204 8.204H455.149z" data-original="#99e6fc"></path><path fill="#ffe177" d="M441.692 193.806a8.204 8.204 0 0 0 8.204-8.204v-33.569a8.204 8.204 0 0 0-8.203-8.204h-57.269a8.204 8.204 0 0 0-8.204 8.204v33.569a8.204 8.204 0 0 0 8.204 8.204H455.149z" data-original="#ffe177"></path><path fill="#596c76" d="M80.506 0C62.912 0 48.649 14.263 48.649 31.857v413.322h.016c.334-17.304 14.457-31.231 31.841-31.231h31.857V.001H80.506z" data-original="#596c76"></path><path fill="#f2fbff" d="M112.363 413.947h284.932v56.025H112.363z" data-original="#f2fbff"></path><path fill="#dff6fd" d="M112.363 462.151h284.932v15.51H112.363z" data-original="#dff6fd"></path><path fill="#f07281" d="M416.056 0H112.362v404.337h286.68c9.444 0 17.1-7.656 17.1-17.1.001-405.502.05-385.886-.086-387.237z" data-original="#f07281"></path><path fill="#596c76" d="M80.506 0C62.912 0 48.649 14.263 48.649 31.857v413.322-15.377h.016c.334-17.304 14.457-31.232 31.841-31.232H112.362V0H80.506z" data-original="#596c76"></path><path fill="#8d9ca8" d="M53.267 462.283h59.096v-48.336H80.507c-17.594 0-31.857 14.263-31.857 31.857-.001 5.747 1.541 11.509 4.617 16.479z" data-original="#8d9ca8"></path><path fill="#62dbfb" d="M455.147 63.098h-17.3a8.204 8.204 0 0 1 8.204 8.204v33.569a8.204 8.204 0 0 1-8.204 8.204h17.3a8.204 8.204 0 0 0 8.204-8.204V71.302a8.204 8.204 0 0 0-8.204-8.204z" data-original="#62dbfb"></path><path fill="#ffd15b" d="M455.147 143.829h-17.3a8.204 8.204 0 0 1 8.204 8.204v33.569a8.204 8.204 0 0 1-8.204 8.204h17.3a8.204 8.204 0 0 0 8.204-8.204v-33.569a8.204 8.204 0 0 0-8.204-8.204z" data-original="#ffd15b"></path><path fill="#f2fbff" d="M363.79 352.551H182.015c-6.864 0-12.429-5.565-12.429-12.429v-1.091c0-6.864 5.565-12.429 12.429-12.429H363.79c6.864 0 12.429 5.565 12.429 12.429v1.091c.001 6.865-5.564 12.429-12.429 12.429z" data-original="#f2fbff"></path><path fill="#5f99d7" d="M145.477 440.616v68.275c0 2.4 2.607 3.892 4.677 2.677l20.381-11.968a3.104 3.104 0 0 1 3.144 0l20.38 11.968c2.07 1.215 4.677-.277 4.677-2.677v-68.275z" data-original="#5f99d7"></path><path fill="#f2fbff" d="M363.041 193.806H182.765c-7.279 0-13.179-5.9-13.179-13.179V62.675c0-7.279 5.9-13.179 13.179-13.179h180.276c7.279 0 13.179 5.9 13.179 13.179v117.952c0 7.278-5.901 13.179-13.179 13.179z" data-original="#f2fbff"></path><g fill="#7a8c98"><path d="M238.008 85.551c-.026-.072-.055-.142-.084-.213-3.173-7.711-14.09-7.682-17.241.019l-.069.175-25.777 67.679a7.762 7.762 0 0 0 4.49 10.016 7.76 7.76 0 0 0 10.016-4.49l4.516-11.857h30.701l4.466 11.835a7.76 7.76 0 0 0 10.002 4.52 7.76 7.76 0 0 0 4.52-10.002zm-18.236 45.806 9.51-24.967 9.422 24.967zM343.715 148.212h-31.474l36.911-56.647c3.359-5.156-.352-11.999-6.503-11.999h-43.321c-4.287 0-7.761 3.474-7.761 7.761s3.474 7.761 7.761 7.761h29l-36.911 56.647c-3.359 5.156.352 11.999 6.503 11.999h45.795c4.287 0 7.761-3.474 7.761-7.761s-3.475-7.761-7.761-7.761z" fill="#7a8c98" data-original="#7a8c98"></path><path d="M292.537 121.651a7.76 7.76 0 0 0-7.761-7.761h-14.453c-4.287 0-7.761 3.474-7.761 7.761s3.474 7.761 7.761 7.761h14.453a7.76 7.76 0 0 0 7.761-7.761z" fill="#7a8c98" data-original="#7a8c98"></path></g><path fill="#7bacdf" d="M182.178 440.616h-36.701v68.275c0 2.4 2.607 3.892 4.676 2.677l20.381-11.968a3.104 3.104 0 0 1 3.144 0l8.5 4.991h5.005v-59.412z" data-original="#7bacdf"></path><path fill="#5f99d7" d="M182.178 440.616v63.975l11.88 6.977c2.07 1.215 4.677-.277 4.677-2.677v-68.275z" data-original="#5f99d7"></path><path fill="#8d9ca8" d="M53.267 462.283h59.096v-48.336H80.507c-17.594 0-31.857 14.263-31.857 31.857-.001 5.747 1.541 11.509 4.617 16.479z" data-original="#8d9ca8"></path><path fill="#7a8c98" d="m53.186 462.151.176.289h.006c5.603 9.121 15.648 15.22 27.137 15.22H112.361v-15.51H53.186z" data-original="#7a8c98"></path><path fill="#eb5569" d="M416.343 0h-4.131c.135 1.348.087-18.771.087 381.47 0 9.444-7.656 17.1-17.1 17.1H112.363l-1.704 1.569v12.019l1.704 1.789h303.981c9.444 0 17.1-7.656 17.1-17.1V17.1C433.443 7.656 425.787 0 416.343 0z" data-original="#eb5569" class=""></path><path fill="#465a61" d="M82.284 398.57c-20.973 0-33.309 15.175-33.619 31.232h-.016v15.377h.016c.313-16.205 12.764-31.232 33.619-31.232h30.078V398.57H82.284z" data-original="#465a61"></path></g></svg>