<svg xmlns="http://www.w3.org/2000/svg" xmlns:xlink="http://www.w3.org/1999/xlink" xmlns:svgjs="http://svgjs.com/svgjs" width="512" height="512" x="0" y="0" viewBox="0 0 135 135" style="enable-background:new 0 0 512 512" xml:space="preserve" class=""><g><path fill="#ffffff" d="M123.669 125.506c0 1.2-.98 2.17-2.18 2.17-1.2 0-2.17-.97-2.17-2.17s.97-2.17 2.17-2.17 2.18.97 2.18 2.17z" data-original="#ffffff" class=""></path><path fill="#00c5ea" d="M125.599 51.076v65.66c0 1.37-1.09 2.46-2.45 2.46H7.929c-1.36 0-2.46-1.09-2.46-2.46v-65.66c0-1.36 1.1-2.46 2.46-2.46h6.26v57.2h43.01c4.54 0 8.22 3.61 8.33 8.1h.02c.11-4.49 3.78-8.1 8.33-8.1h43v-26.73l.01-30.47h6.26c1.36 0 2.45 1.1 2.45 2.46z" data-original="#00c5ea"></path><path fill="#ffffff" d="M7.925 48.615h6.263v2.326h-3.937a2.468 2.468 0 0 0-2.461 2.461v65.66c0 .036 0 .085.012.122a2.45 2.45 0 0 1-2.338-2.448v-65.66a2.468 2.468 0 0 1 2.461-2.46z" opacity=".5" data-original="#ffffff" class=""></path><path d="M125.613 51.074v65.66a2.466 2.466 0 0 1-2.469 2.458H7.924a2.464 2.464 0 0 1-2.459-2.458v-.031h49.561c19.346 0 36.876-8.174 49.302-21.244a68.408 68.408 0 0 0 12.344-18.038c4.139-8.755 6.441-18.526 6.441-28.805h.031a2.472 2.472 0 0 1 2.47 2.458z" opacity=".05" fill="#000000" data-original="#000000" class=""></path><path d="M125.599 81.826v34.91c0 1.37-1.09 2.46-2.45 2.46h-24.98l-6.53-13.38-3.91-8.02c-1.5-3.11-.42-6.81 2.51-8.6 1.02-.63 2.23-.98 3.49-.98 1.53 0 2.97.52 4.13 1.43v-16.17c0-3.57 2.91-6.47 6.48-6.47 1.72 0 3.34.67 4.56 1.89a6.422 6.422 0 0 1 1.9 4.58v2.4c.15-.01.31-.02.47-.02 1.7 0 3.37.69 4.57 1.89.41.41.75.86 1.04 1.34.1.19.2.38.29.57.34-.06.68-.08 1.04-.08 1.73 0 3.35.67 4.57 1.88.19.2.37.4.54.61.58-.17 1.19-.26 1.83-.26.15 0 .3.01.45.02z" opacity=".05" fill="#000000" data-original="#000000" class=""></path><path fill="#f3fcff" d="M65.529 113.916h-55.32v-65.31l3.99-9.7v66.91h43c4.53 0 8.22 3.61 8.33 8.1z" data-original="#f3fcff" class=""></path><path d="M11.208 113.868V79.783l7.671-17.107L23.547 73.1l2.982 6.687v34.081z" opacity=".05" fill="#000000" data-original="#000000" class=""></path><path fill="#f3fcff" d="M120.859 48.606v65.31h-55.31c.11-4.49 3.8-8.1 8.33-8.1h43v-66.91z" data-original="#f3fcff" class=""></path><path d="M120.859 80.146v33.77h-25.26l-3.96-8.1-3.91-8.02c-1.5-3.11-.42-6.81 2.51-8.6 1.02-.63 2.23-.98 3.49-.98 1.53 0 2.97.52 4.13 1.43v-16.17c0-3.57 2.91-6.47 6.48-6.47 1.72 0 3.34.67 4.56 1.89a6.422 6.422 0 0 1 1.9 4.58v2.4c.15-.01.31-.02.47-.02 1.7 0 3.37.69 4.57 1.89.41.41.75.86 1.04 1.34.1.19.2.38.29.57.34-.06.68-.08 1.04-.08.93 0 1.83.19 2.65.57z" opacity=".05" fill="#000000" data-original="#000000" class=""></path><path fill="#f3fcff" d="M65.539 46.426v67.49h-.01c-.11-4.49-3.79-8.1-8.33-8.1h-43.01v-66.91h43.83c.95 0 1.86.18 2.69.51a7.478 7.478 0 0 1 4.83 7.01z" data-original="#f3fcff" class=""></path><path d="M26.529 79.786v26.03h-12.34v-32.68l4.69-10.46 4.67 10.42z" opacity=".05" fill="#000000" data-original="#000000" class=""></path><path fill="#ffffff" d="M64.75 43.054c-.234-.136-.48-.234-.727-.333a7.285 7.285 0 0 0-2.694-.504H20.062a2.563 2.563 0 0 0-2.564 2.563v61.029h-3.31V38.907h43.83c.948 0 1.859.172 2.696.504a7.462 7.462 0 0 1 4.036 3.643z" data-original="#ffffff" class=""></path><path fill="#d4f4ff" d="M65.537 46.425v4.295L60.714 39.41a7.477 7.477 0 0 1 4.823 7.014zM65.537 60.822v53.096h-.012c-.111-4.504-3.79-8.11-8.33-8.11h-3.237L25.435 38.908h30.763z" data-original="#d4f4ff" class=""></path><path fill="#f3fcff" d="M116.889 38.906v9.71l-.01 29.39v27.81h-43c-4.55 0-8.22 3.61-8.33 8.1h-.01v-67.49c0-2.24.97-4.26 2.54-5.62a7.39 7.39 0 0 1 4.98-1.9h43.83z" data-original="#f3fcff" class=""></path><path fill="#d4f4ff" d="M95.795 105.809h-6.768l-23.49-55.09v-4.294c0-2.24.972-4.257 2.535-5.623z" data-original="#d4f4ff" class=""></path><path d="M116.879 79.086v26.73h-25.24l-3.91-8.02c-1.5-3.11-.42-6.81 2.51-8.6 1.02-.63 2.23-.98 3.49-.98 1.53 0 2.97.52 4.13 1.43v-16.17c0-3.57 2.91-6.47 6.48-6.47 1.72 0 3.34.67 4.56 1.89a6.422 6.422 0 0 1 1.9 4.58v2.4c.15-.01.31-.02.47-.02 1.7 0 3.37.69 4.57 1.89.41.41.75.86 1.04 1.34z" opacity=".05" fill="#000000" data-original="#000000" class=""></path><path fill="#d4f4ff" d="M84.72 105.809H73.88c-4.54 0-8.22 3.605-8.33 8.109h-.013V60.822z" data-original="#d4f4ff" class=""></path><path fill="#ffff9a" d="M80.97 23.252c0 3.241-1.108 6.176-2.715 8.732-1.907 3.004-6.159 10.63-6.448 12.686H59.279c-.044-.29-.158-.686-.343-1.16-.834-2.258-3.03-6.343-4.744-9.277a69.534 69.534 0 0 0-1.361-2.249c-1.6-2.556-2.715-5.49-2.715-8.732 0-8.004 6.097-14.584 13.898-15.348a14.719 14.719 0 0 1 3.497.053 15.302 15.302 0 0 1 9.672 5.183c.51.571.966 1.186 1.38 1.827a15.325 15.325 0 0 1 2.406 8.285z" data-original="#ffff9a"></path><path fill="#ffe93e" d="M51.894 23.25c0 3.245 1.118 6.179 2.716 8.732.38.598.854 1.374 1.359 2.251 1.715 2.934 3.912 7.016 4.75 9.275.178.474.295.87.341 1.164h-1.785c-.039-.295-.155-.69-.341-1.164-.83-2.259-3.027-6.341-4.743-9.275a92.515 92.515 0 0 0-1.358-2.25c-1.599-2.554-2.716-5.488-2.716-8.733 0-8.002 6.092-14.584 13.9-15.344a14.202 14.202 0 0 1 1.53-.078c.294 0 .59.008.884.024-.217.015-.427.03-.636.054-7.8.76-13.901 7.342-13.901 15.344z" data-original="#ffe93e" class=""></path><path fill="#ffe93e" d="M75.268 11.278 58.936 43.51c-.834-2.258-3.03-6.343-4.744-9.277L67.511 7.957a15.302 15.302 0 0 1 7.757 3.32zM78.562 14.967 63.505 44.67h-2.302l15.98-31.53c.51.571.966 1.186 1.38 1.827z" data-original="#ffe93e" class=""></path><path fill="#d4f4ff" d="M74.313 46.456c0 .338-.1.65-.263.926-.325.538-.913.913-1.576.913H59c-.663 0-1.225-.375-1.538-.913a1.8 1.8 0 0 1-.25-.926c0-.988.8-1.789 1.788-1.789h13.473c.988 0 1.839.801 1.839 1.79z" data-original="#d4f4ff" class=""></path><path fill="#f3fcff" d="M74.31 46.453c0 .272-.061.527-.175.756a1.854 1.854 0 0 0-1.66-1.037H58.997c-.72 0-1.344.43-1.617 1.045a1.806 1.806 0 0 1-.166-.764c0-.984.799-1.783 1.783-1.783h13.476c.984 0 1.836.8 1.836 1.783z" data-original="#f3fcff" class=""></path><path fill="#a3acbf" d="M73.335 50.099c0 .263-.061.518-.176.747a1.854 1.854 0 0 0-1.66-1.037H59.56a1.77 1.77 0 0 0-1.616 1.037 1.786 1.786 0 0 1 1.616-2.54H71.5c.984 0 1.836.791 1.836 1.793z" opacity=".5" data-original="#a3acbf" class=""></path><path fill="#d4f4ff" d="M73.34 50.098c0 .327-.1.635-.266.905a1.824 1.824 0 0 1-1.573.934H59.562c-.658 0-1.232-.38-1.535-.934a1.736 1.736 0 0 1-.251-.905c0-1 .8-1.791 1.786-1.791h11.939c.957 0 1.791.749 1.834 1.71.005.024.005.053.005.081z" data-original="#d4f4ff" class=""></path><path fill="#f3fcff" d="M73.335 50.018a1.844 1.844 0 0 0-.863-.214H58.998c-.469 0-.9.185-1.213.484a1.783 1.783 0 0 1 1.777-1.981h11.939c.957 0 1.791.749 1.834 1.71z" data-original="#f3fcff" class=""></path><path fill="#d4f4ff" d="M72.633 53.722c0 .326-.086.637-.256.916a1.837 1.837 0 0 1-1.576.924H60.269a1.759 1.759 0 0 1-1.545-.924 1.957 1.957 0 0 1-.233-.916c0-.985.784-1.777 1.778-1.777H70.8c.986 0 1.832.792 1.832 1.777z" data-original="#d4f4ff" class=""></path><path fill="#f3fcff" d="M72.632 53.727c0 .264-.061.518-.175.756a1.834 1.834 0 0 0-1.66-1.037H60.262c-.72 0-1.335.422-1.608 1.037a1.858 1.858 0 0 1-.167-.756c0-.993.791-1.783 1.775-1.783h10.533c.993 0 1.836.79 1.836 1.783z" data-original="#f3fcff" class=""></path><path fill="#76819f" d="M69.572 55.563a3.856 3.856 0 0 1-3.815 3.215 3.815 3.815 0 0 1-3.128-1.601 3.795 3.795 0 0 1-.675-1.614z" data-original="#76819f"></path><path fill="#ffb266" d="M125.148 119.507h-23.486l-1.546-3.166-9.692-19.859a3.675 3.675 0 0 1 1.383-4.727 3.602 3.602 0 0 1 1.917-.535c1.219 0 2.423.61 3.122 1.725l4.013 6.495V73.47c0-1.902 1.56-3.463 3.478-3.463.952 0 1.814.387 2.438 1.011a3.45 3.45 0 0 1 1.026 2.453v8.848a3.477 3.477 0 0 1 3.463-3.464c.951 0 1.829.387 2.453 1.011a3.45 3.45 0 0 1 1.025 2.453v3.716a3.477 3.477 0 0 1 3.464-3.464c.966 0 1.828.387 2.452 1.011a3.45 3.45 0 0 1 1.026 2.453v2.23a3.477 3.477 0 0 1 3.464-3.464 3.544 3.544 0 0 1 2.453 1.01 3.45 3.45 0 0 1 1.025 2.453V99.44s.104 10.36-3.478 20.067z" data-original="#ffb266"></path><path fill="#ffcb8f" d="M121.31 116.341h-21.194l-9.692-19.859a3.675 3.675 0 0 1 1.383-4.727 3.602 3.602 0 0 1 1.917-.535c1.219 0 2.423.61 3.122 1.725l4.013 6.495V73.47c0-1.902 1.56-3.463 3.478-3.463.952 0 1.814.387 2.438 1.011a3.45 3.45 0 0 1 1.026 2.453v8.848a3.477 3.477 0 0 1 3.463-3.464c.951 0 1.829.387 2.453 1.011a3.45 3.45 0 0 1 1.025 2.453v3.716a3.477 3.477 0 0 1 3.464-3.464c.966 0 1.828.387 2.452 1.011a3.45 3.45 0 0 1 1.026 2.453v2.23a3.476 3.476 0 0 1 3.529-3.463l.633.618v10.854s.083 9.663-3.124 19.068c-.205.6-.779 1-1.413 1z" data-original="#ffcb8f" class=""></path><path fill="#76819f" d="M126.968 131.5v-11.2a.788.788 0 0 0-.787-.787H101a.788.788 0 0 0-.787.788V131.5" data-original="#76819f"></path><path fill="#ffffff" d="M126.179 119.516h-25.18c-.43 0-.79.35-.79.79v11.19h2.32v-8.88c0-.44.35-.79.79-.79h23.65v-1.52c0-.44-.35-.79-.79-.79z" opacity=".3" data-original="#ffffff" class=""></path><path fill="#ffffff" d="M123.669 125.506c0 1.2-.98 2.17-2.18 2.17-1.2 0-2.17-.97-2.17-2.17s.97-2.17 2.17-2.17 2.18.97 2.18 2.17z" data-original="#ffffff" class=""></path><path fill="#ffcb8f" d="m18.88 70.007-1.933 4.313-2.735 6.1h9.322l-2.722-6.1z" data-original="#ffcb8f" class=""></path><path fill="#00ffc1" d="M14.212 80.426h9.322v43.848h-9.322z" data-original="#00ffc1"></path><path fill="#ffffff" d="M23.529 80.426v1.97h-7.35v41.88h-1.97v-43.85z" opacity=".5" data-original="#ffffff" class=""></path><path fill="#f3fcff" d="M14.212 120.434h9.322v3.839h-9.322z" data-original="#f3fcff" class=""></path><path fill="#e01239" d="M18.873 131.5a4.66 4.66 0 0 1-4.66-4.66v-2.566l9.32-.001v2.566a4.661 4.661 0 0 1-4.66 4.66z" data-original="#ff617d" class=""></path><path fill="#ffffff" d="M14.212 124.526v2.317a4.662 4.662 0 0 0 4.657 4.657 4.665 4.665 0 0 0 4.668-4.658v-2.318a4.668 4.668 0 0 1-4.668 4.67 4.664 4.664 0 0 1-4.657-4.668z" opacity=".3" data-original="#ffffff" class=""></path><g fill="#384b7d"><path d="M7.157 131h-.619a.5.5 0 1 0 0 1h.62a.5.5 0 1 0 0-1zM129.538 131h-.246a.5.5 0 1 0 0 1h.246a.5.5 0 1 0 0-1zM19.864 47.99h23.97a.5.5 0 1 0 0-1h-23.97a.5.5 0 1 0 0 1zM19.864 53.619h23.538a.5.5 0 1 0 0-1H19.864a.5.5 0 1 0 0 1zM19.864 59.249h39.99a.5.5 0 1 0 0-1h-39.99a.5.5 0 1 0 0 1zM19.864 64.878h39.99a.5.5 0 1 0 0-1h-39.99a.5.5 0 1 0 0 1zM78.562 47.99h32.645a.5.5 0 1 0 0-1H78.562a.5.5 0 1 0 0 1zM111.207 58.249H71.216a.5.5 0 1 0 0 1h39.99a.5.5 0 1 0 0-1zM111.207 63.878H71.216a.5.5 0 1 0 0 1h39.99a.5.5 0 1 0 0-1zM97.511 69.507H71.216a.5.5 0 1 0 0 1H97.51a.5.5 0 1 0 0-1zM71.216 76.137h22.816a.5.5 0 1 0 0-1H71.216a.5.5 0 1 0 0 1zM96.532 80.767H71.216a.5.5 0 1 0 0 1h25.316a.5.5 0 1 0 0-1zM93.204 86.396H71.216a.5.5 0 1 0 0 1h21.988a.5.5 0 1 0 0-1zM86.324 92.025H71.216a.5.5 0 1 0 0 1h15.108a.5.5 0 1 0 0-1zM86.324 97.655H71.216a.5.5 0 1 0 0 1h15.108a.5.5 0 1 0 0-1zM57.2 7.445a.5.5 0 0 0 .901-.433l-.836-1.738a.5.5 0 0 0-.901.434zM51.014 12.664a.5.5 0 0 0 .623-.782L50.13 10.68a.5.5 0 0 0-.623.782zM80.063 34.551a.5.5 0 0 0-.623.782l1.508 1.203a.5.5 0 0 0 .623-.783zM45.824 19.62l1.88.43a.5.5 0 1 0 .222-.975l-1.88-.429a.5.5 0 1 0-.223.975zM83.151 28.14l1.88.43a.5.5 0 1 0 .222-.975l-1.88-.43a.5.5 0 0 0-.223.975zM46.046 28.57l1.88-.43a.5.5 0 0 0-.222-.974l-1.88.429a.5.5 0 0 0 .222.974zM83.374 20.05l1.88-.43a.5.5 0 1 0-.223-.974l-1.88.429a.5.5 0 1 0 .223.974zM49.818 36.645c.11 0 .22-.036.311-.11l1.508-1.202a.5.5 0 1 0-.623-.782l-1.508 1.202a.5.5 0 0 0 .312.892zM80.063 12.664l1.508-1.202a.5.5 0 1 0-.623-.782l-1.508 1.202a.5.5 0 1 0 .623.782zM73.426 7.729a.5.5 0 0 0 .451-.284l.837-1.737a.5.5 0 0 0-.902-.434l-.836 1.738a.5.5 0 0 0 .45.717zM65.538 5.928a.5.5 0 0 0 .5-.5V3.5a.5.5 0 1 0-1 0v1.928a.5.5 0 0 0 .5.5zM121.491 128.18c1.48 0 2.68-1.2 2.68-2.67 0-1.48-1.2-2.67-2.68-2.67a2.67 2.67 0 1 0 0 5.34zm0-4.34c.92 0 1.68.74 1.68 1.67 0 .92-.76 1.67-1.68 1.67s-1.67-.75-1.67-1.67c0-.93.75-1.67 1.67-1.67zM19.142 114.66h-.267a.5.5 0 1 0 0 1h.267a.5.5 0 1 0 0-1z" fill="#384b7d" data-original="#384b7d" class=""></path><path d="M127.792 131h-.324v-10.7c0-.71-.577-1.286-1.287-1.286h-.32v-.004c3.33-9.49 3.27-19.47 3.26-19.57V88.26c0-1.81-1.25-3.41-3.01-3.83V51.08a2.963 2.963 0 0 0-2.96-2.96h-1.94l-3.865-9.395a.495.495 0 0 0-.465-.32c-.009 0-.017.005-.026.005H75.141c1.21-2.29 2.58-4.65 3.53-6.16 1.86-2.93 2.8-5.96 2.8-9 0-8.78-7.15-15.92-15.93-15.92-.53 0-1.06.02-1.57.08-8.18.8-14.35 7.61-14.35 15.84 0 3.02.94 6.05 2.79 9 .95 1.51 2.31 3.86 3.53 6.15h-41.75c-.1 0-.2.03-.28.08-.07.06-.13.13-.18.22l-.03.1-3.84 9.32h-1.94c-1.63 0-2.96 1.33-2.96 2.96v65.66c0 1.63 1.33 2.96 2.96 2.96h5.79V126.84c0 1.71.83 3.22 2.12 4.16h-5.674a.5.5 0 1 0 0 1h117.635a.5.5 0 1 0 0-1zm-1.324-10.7V131h-25.754v-10.7c0-.157.129-.286.287-.286h25.18c.158 0 .287.129.287.287zM17.42 74.474c1.06.343 1.879.332 2.903.006l.617 1.368c.96 2.145 1.872 4.185 1.823 4.073l-7.78.01 2.437-5.457zm47.563 38.792c.005.048.006.097.01.145h-40.96v-7.1c35.895-.008 32.965.012 33.2-.009a7.79 7.79 0 0 1 7.75 6.964zm-3.62-58.205v.01h-1.09c-.7 0-1.29-.62-1.29-1.34 0-.72.57-1.29 1.29-1.29h10.52c.54 0 1.02.33 1.23.78.01.03.03.07.03.1.05.13.08.27.08.41 0 .71-.63 1.34-1.34 1.34h-.63v-.01zm-2.36-9.89h13.47c.72 0 1.34.59 1.34 1.29 0 .71-.63 1.34-1.34 1.34h-13.47c-.7 0-1.29-.61-1.29-1.34 0-.72.57-1.29 1.29-1.29zm4.42-17.22h-2.52c-1.4 0-2.53-1.14-2.53-2.53a2.524 2.524 0 1 1 5.05 0zm3.68 16.22h-2.68V28.95h2.68zm7.51-4.76h41.77l-.01 43.12c-.43.22-.81.52-1.13.88v-1.09c0-2.19-1.78-3.96-3.98-3.96-1.18 0-2.23.51-2.96 1.33v-6.22a3.97 3.97 0 0 0-3.96-3.96c-2.2 0-3.98 1.78-3.98 3.96v24.21l-3.09-5a4.164 4.164 0 0 0-3.55-1.96c-.79 0-1.54.21-2.18.61a4.164 4.164 0 0 0-1.57 5.37l4.2 8.6h-20.3c-3.413 0-6.358 1.93-7.83 4.784V59.26c1.915-.118 3.479-1.462 3.92-3.19h.83c1.27 0 2.34-1.07 2.34-2.34v-.11h38.08a.5.5 0 1 0 0-1h-38.37c-.09-.16-.2-.31-.33-.44.77-.38 1.32-1.18 1.32-2.08 0-.56-.2-1.07-.54-1.46.88-.33 1.52-1.2 1.52-2.18 0-1.26-1.05-2.29-2.34-2.29h-.03c.33-1.05 1.17-2.83 2.17-4.76zm-8.513 74c.295-2.745 1.897-5.006 4.16-6.202a7.726 7.726 0 0 1 3.622-.898h20.78l3.47 7.1H66.1zm-6.527-64.6h11.92c.73 0 1.34.59 1.34 1.29 0 .71-.63 1.33-1.34 1.33h-11.92c-.7 0-1.29-.61-1.29-1.33 0-.73.56-1.29 1.29-1.29zm9.35 7.26c-.1.3-.25.56-.43.82-.63.87-1.65 1.39-2.74 1.39-.07 0-.14 0-.21-.01-1-.06-1.93-.57-2.51-1.39-.18-.25-.33-.51-.43-.81h6.32zm-54.21 24.86 8.32-.01v33.74h-1.798a.5.5 0 1 0 0 1h1.797v4.27h-8.32v-39zm0 40h8.32v2.84h-8.32zm9.32-5.74c0-.011.006-.02.006-.03s-.006-.02-.007-.03v-.72h74.58l2.1 4.29h-76.68zm104.09-26.93v11.19c.01.1.07 10.14-3.32 19.56h-22.829c-.002-.007-.007-.012-.01-.018l-.042-.092-2.54-5.19-.04-.08-3.9-8-.007-.016-.008-.019-.034-.075-.01-.02-4.51-9.23c-.71-1.48-.2-3.24 1.2-4.09.48-.3 1.05-.46 1.65-.46 1.11 0 2.12.56 2.7 1.49l4.01 6.49a.504.504 0 0 0 .93-.26V73.47a2.97 2.97 0 0 1 5.94 0v8.85c0 .022.003.038.005.055v14.088a.5.5 0 1 0 1 0V82.314c0-.01-.005-.018-.006-.028v-.036c.04-1.6 1.35-2.89 2.96-2.89a2.97 2.97 0 0 1 2.98 2.96v3.71c0 .02.004.046.007.07v9.62a.5.5 0 1 0 1 0v-9.794c.002-.016 0-.03.003-.046.05-1.15.77-2.12 1.77-2.57l.004-.001c.018-.006.036-.009.053-.017.015-.005.031-.012.043-.012.01-.01.02-.01.03-.02 1.225-.445 2.504-.082 3.3.83a2.948 2.948 0 0 1 .73 1.94v2.23a.34.34 0 0 0 .01.088v6.629a.5.5 0 1 0 1 0V88.11a2.958 2.958 0 0 1 2.96-2.81c.11 0 .23.01.36.03a2.955 2.955 0 0 1 2.61 2.93zm-3.01-37.18V84.3c-1.21-.01-2.22.53-2.95 1.36-.07-.75-.35-1.44-.79-2.02V49.12h1.78c1.08 0 1.96.88 1.96 1.96zm-4.74 31.63a3.964 3.964 0 0 0-3-.55l.009-40.721 2.99 7.27zm-67.11-50.99c-1.75-2.79-2.64-5.64-2.64-8.47a14.86 14.86 0 0 1 14.92-14.92c8.23 0 14.93 6.69 14.93 14.92 0 2.85-.89 5.7-2.64 8.47-.93 1.46-2.54 4.24-3.92 6.89-.02.03-.04.07-.06.1 0 .01-.01.01-.01.02-1.14 2.17-2.11 4.25-2.43 5.44h-3.31V28.95h2.53c1.94 0 3.52-1.59 3.52-3.53 0-1.95-1.58-3.53-3.52-3.53a3.53 3.53 0 0 0-3.53 3.53v2.53h-2.68v-2.53c0-1.95-1.58-3.53-3.52-3.53a3.53 3.53 0 1 0 0 7.06h2.52v15.22h-3.74c-.31-1.19-1.28-3.25-2.43-5.42-.02-.06-.05-.11-.08-.17-1.39-2.64-2.99-5.4-3.91-6.86zm14.84-3.77v-2.53a2.524 2.524 0 1 1 5.05 0 2.53 2.53 0 0 1-2.52 2.53zM56.471 39.4c1.01 1.95 1.85 3.75 2.18 4.8-1.1.17-1.94 1.12-1.94 2.26 0 .89.49 1.66 1.2 2.06-1.075 1.13-.723 2.989.66 3.68-.37.41-.59.94-.59 1.53 0 1.29 1.03 2.34 2.29 2.34h1.29c.13.51.36.98.66 1.39.66.95 1.69 1.58 2.82 1.76v50.812c-.018-.033-.041-.063-.059-.096-1.585-2.96-4.64-4.636-7.781-4.636h-33.17v-6.64h35.82a.5.5 0 1 0 0-1h-35.82v-4.63h35.82a.5.5 0 1 0 0-1h-35.82V87.4h35.82a.5.5 0 1 0 0-1h-35.82v-4.63h35.82a.5.5 0 1 0 0-1h-35.82v-.35c0-.06-.01-.13-.04-.19v-.01l-1.83-4.08h37.69a.5.5 0 1 0 0-1h-38.13l-2.08-4.63-.002-.003h40.215a.5.5 0 1 0 0-1h-40.98a.486.486 0 0 0-.248.075c-.008.005-.018.003-.026.008-.011.009-.019.02-.029.03a.489.489 0 0 0-.163.22l-.017.04-.01.03-3.69 8.21V39.4h41.78zm-42.78 2.03v64.37c0 .05.01.09.02.13V113.41h-3.01v-64.7l.24-.59zm-5.77 77.27c-1.08 0-1.96-.88-1.96-1.96V51.08c0-1.08.88-1.96 1.96-1.96h1.78v64.79c0 .28.22.5.5.5h3.51v4.29zm6.79 8.14v-2.07h8.32v2.07c0 2.29-1.86 4.16-4.16 4.16a4.17 4.17 0 0 1-4.16-4.16zm9.32 0V119.7h75.85c-.098.182-.168.38-.168.6V131H21.91a5.113 5.113 0 0 0 2.12-4.16z" fill="#384b7d" data-original="#384b7d" class=""></path></g></g></svg>