<svg xmlns="http://www.w3.org/2000/svg" xmlns:xlink="http://www.w3.org/1999/xlink" xmlns:svgjs="http://svgjs.com/svgjs" width="512" height="512" x="0" y="0" viewBox="0 0 682.667 682.667" style="enable-background:new 0 0 512 512" xml:space="preserve" class=""><g><defs><clipPath id="a"><path d="M0 512h512V0H0Z" fill="#3f456b" data-original="#000000" class=""></path></clipPath></defs><g clip-path="url(#a)" transform="matrix(1.33333 0 0 -1.33333 0 682.667)"><path d="m0 0 4.204-37.808h191.443l-14.923 76.231c-5.615 28.676 3.751 58.227 24.815 78.479 45.517 43.763 47.227 93.794 47.702 111.6 2.462 92.332-65.889 153.765-158.221 156.227-84.843 2.262-145.772-30.922-165.143-112.241-1.838-7.716-1.783-15.764.051-23.481l1.427-6.001a23.75 23.75 0 0 0-4.801-20.625l-38.95-48.528c-5.516-6.671-2.362-16.81 5.965-19.176l28.735-8.162c4.984-1.416 6.533-7.719 2.773-11.285l-9.674-9.169c-2.279-2.162-1.967-5.879.641-7.63l12.439-10.223c3.05-2.507 3.45-7.006.922-10.039-1.382-1.658-11.85-11.245-11.85-11.245-3.127-2.243-2.605-7.041.93-8.561l13.493-6.746-14.342-28.683c-5.843-16.188 7.377-32.87 24.471-30.881l37.293 4.339C-10.377 17.581-1.137 10.229 0 0" style="fill-opacity:1;fill-rule:nonzero;stroke:none" transform="translate(251.195 101.557)" fill="#ffe6cf" data-original="#ffe6cf" class=""></path><path d="M0 0c-11.766.314-23.069-.057-33.868-1.141 83.608-9.096 143.565-68.505 141.256-155.086-.475-17.805-2.185-67.836-47.702-111.599-21.064-20.252-30.429-49.804-24.815-78.48l14.923-76.23h50.833l-14.923 76.23c-5.614 28.676 3.751 58.228 24.816 78.48 45.516 43.763 47.226 93.794 47.701 111.599C160.684-63.895 92.332-2.462 0 0" style="fill-opacity:1;fill-rule:nonzero;stroke:none" transform="translate(346.214 486.285)" fill="#efd0b6" data-original="#efd0b6" class=""></path><path d="M0 0c10.009 0 17.978 8.382 17.474 18.378L16.04 46.79c-.503 7.109-6.673 12.465-13.783 11.963l-199.15-14.068a35.999 35.999 0 0 1-26.708-14.917l-17.235-23.537c-1.895-2.587-.047-6.231 3.16-6.231Z" style="fill-opacity:1;fill-rule:nonzero;stroke:none" transform="translate(447.718 25.606)" fill="#a26bf9" data-original="#a26bf9" class=""></path><path d="M0 0a7.5 7.5 0 0 1-10.606 10.607c-59.341-59.341-59.341-155.896 0-215.237a7.475 7.475 0 0 1 5.303-2.196A7.502 7.502 0 0 1 0-194.022C-53.492-140.53-53.492-53.492 0 0" style="fill-opacity:1;fill-rule:nonzero;stroke:none" transform="translate(55.114 283.72)" fill="#3f456b" data-original="#000000" class=""></path><path d="M0 0c0 25.286 9.818 49.029 27.645 66.855a7.502 7.502 0 0 1-10.607 10.608C-3.622 56.803-15 29.293-15 0c0-29.292 11.378-56.802 32.038-77.463a7.477 7.477 0 0 1 5.303-2.196 7.502 7.502 0 0 1 5.304 12.804C9.818-49.028 0-25.285 0 0" style="fill-opacity:1;fill-rule:nonzero;stroke:none" transform="translate(57.626 186.708)" fill="#3f456b" data-original="#000000" class=""></path><path d="M0 0a7.501 7.501 0 0 1-10.606 0c-26.085-26.085-26.085-68.529 0-94.614a7.476 7.476 0 0 1 5.303-2.197A7.5 7.5 0 0 1 0-84.007c-20.236 20.236-20.236 53.163 0 73.4A7.5 7.5 0 0 1 0 0" style="fill-opacity:1;fill-rule:nonzero;stroke:none" transform="translate(115.426 234.016)" fill="#3f456b" data-original="#000000" class=""></path><path d="M0 0c48.119 46.265 49.535 99.358 50.001 116.806.637 23.906-3.257 46.398-11.576 66.852a7.5 7.5 0 0 1-13.894-5.65c7.532-18.524 11.057-38.981 10.475-60.802-.425-15.927-1.718-64.393-45.402-106.393-23.021-22.132-33.105-54.03-26.978-85.327l9.356-47.795-128.179-9.055a7.5 7.5 0 0 1-6.953-8.01c.292-4.133 3.889-7.253 8.009-6.953l143.713 10.152a5.411 5.411 0 0 0 5.768-4.95l1.43-28.321a9.906 9.906 0 0 0-2.74-7.392 9.903 9.903 0 0 0-7.244-3.108h-230.611l13.103 17.894a28.419 28.419 0 0 0 21.144 11.809l25.141 1.776a7.5 7.5 0 1 1-1.058 14.963l-14.138-.999-2.65 23.836c-.773 6.945-4.209 13.166-9.677 17.518-5.469 4.35-12.304 6.299-19.244 5.495l-37.293-4.339c-5.424-.633-10.697 1.549-14.092 5.833-3.312 4.179-4.267 9.638-2.589 14.675l14.127 28.252a7.503 7.503 0 0 1-3.354 10.062l-10.395 5.197c3.988 3.677 9.002 8.372 10.23 9.846a14.543 14.543 0 0 1 3.333 10.746 14.473 14.473 0 0 1-5.255 9.888l-10.53 8.655 7.522 7.131c3.747 3.553 5.248 8.667 4.015 13.681-1.232 5.013-4.933 8.849-9.9 10.26l-28.733 8.163c-2.112.599-2.845 2.288-3.062 2.986-.217.698-.571 2.505.827 4.195l.069.085 38.918 48.488c6.182 7.507 8.53 17.631 6.28 27.094l-1.426 6.001c-1.575 6.623-1.593 13.542-.052 20.009 17.384 72.981 70.402 108.793 157.647 106.481 54.031-1.441 100.189-24.115 126.638-62.208a7.5 7.5 0 0 1 12.321 8.555c-29.2 42.058-79.704 67.078-138.56 68.647-45.243 1.203-82.719-7.53-111.38-25.966-30.824-19.828-51.434-50.792-61.258-92.033-2.082-8.739-2.064-18.059.05-26.954l1.427-6.001a16.332 16.332 0 0 0-3.285-14.111l-.069-.085-38.921-48.492a19.428 19.428 0 0 1-3.549-18.159 19.428 19.428 0 0 1 13.285-12.962l27.361-7.772-8.637-8.187a12.345 12.345 0 0 1-3.826-10.04 12.337 12.337 0 0 1 5.083-9.005l11.879-9.764c-1.478-1.516-6.399-6.122-10.636-10.007a12.463 12.463 0 0 1-4.678-11.125 12.467 12.467 0 0 1 7.215-9.982l6.635-3.317-10.988-21.975a7.395 7.395 0 0 1-.346-.809c-3.632-10.062-1.834-21.075 4.81-29.46 6.644-8.384 16.951-12.649 27.582-11.417l37.294 4.339a10.986 10.986 0 0 0 8.17-2.332 10.996 10.996 0 0 0 4.109-7.438l2.603-23.416a43.294 43.294 0 0 1-28.277-17.506l-17.237-23.537a11.365 11.365 0 0 1-.97-11.909 11.36 11.36 0 0 1 10.182-6.253h237.676c6.916 0 13.349 2.76 18.114 7.772 4.766 5.012 7.199 11.576 6.85 18.484l-1.434 28.412-.009.15c-.793 11.223-10.578 19.709-21.792 18.916l-.456-.032-9.712 49.612C-27.797-45.361-19.329-18.583 0 0" style="fill-opacity:1;fill-rule:nonzero;stroke:none" transform="translate(461.93 213.054)" fill="#3f456b" data-original="#000000" class=""></path></g></g></svg>