<svg xmlns="http://www.w3.org/2000/svg" xmlns:xlink="http://www.w3.org/1999/xlink" xmlns:svgjs="http://svgjs.com/svgjs" width="512" height="512" x="0" y="0" viewBox="0 0 66 66" style="enable-background:new 0 0 512 512" xml:space="preserve" class=""><g><g stroke-linecap="round" stroke-linejoin="round" stroke-miterlimit="10" stroke-width="1.5"><path fill="#5ce5ce" stroke="#3f456b" d="M60.6 48H5.4c-2 0-3.7-1.6-3.7-3.7V7c0-2 1.6-3.7 3.7-3.7h55.1c2 0 3.7 1.6 3.7 3.7v37.3c0 2-1.6 3.7-3.6 3.7z" data-original="#5ce5ce"></path><path fill="#e8eff7" stroke="#3f456b" d="M60.7 1v37.6L33 43.1V5.6c0-1.3.5-2.4 1.3-3.2s2-1.3 3.2-1.3h23.2z" data-original="#e8eff7"></path><g fill="#e8eff7" stroke="#c7d3e0"><path d="M38 6.9h18.5M38 11.4h18.5M38 15.9h18.5M38 20.4h18.5M38 24.9h18.5M38 29.4h18.5M38 33.9h18.5" fill="#e8eff7" data-original="#e8eff7"></path></g><path fill="#e8eff7" stroke="#3f456b" d="M5.3 1v37.6L33 43.1V5.6c0-1.3-.5-2.4-1.3-3.2s-2-1.3-3.2-1.3H5.3z" data-original="#e8eff7"></path></g><path fill="#c7d3e0" d="M60.7 43v-4.4H37.6c-2.5 0-4.5 2-4.6 4.4zM5.3 43v-4.4h23.1c2.5 0 4.5 2 4.6 4.4z" data-original="#c7d3e0"></path><path fill="#c7d3e0" d="M60.7 43v-4.4H37.6c-2.5 0-4.5 2-4.6 4.4zM5.3 43v-4.4h23.1c2.5 0 4.5 2 4.6 4.4z" data-original="#c7d3e0"></path><path fill="#dae1eb" d="M33 43h-.4c-.7-1.5-2.3-2.6-4.1-2.6H5.3v-1.8h23.1c2.5 0 4.5 1.9 4.6 4.4zM33 43h.4c.7-1.5 2.3-2.6 4.1-2.6h23.1v-1.8h-23c-2.5 0-4.5 1.9-4.6 4.4z" data-original="#dae1eb"></path><path d="M60.7 43v-4.4H37.6c-2.5 0-4.5 2-4.6 4.4zM5.3 43v-4.4h23.1c2.5 0 4.5 2 4.6 4.4z" style="stroke-linecap:round;stroke-linejoin:round;stroke-miterlimit:10;stroke-width:1.5" fill="none" stroke="#3f456b" stroke-linecap="round" stroke-linejoin="round" stroke-miterlimit="10" stroke-width="1." data-original="#3f456b"></path><g style="fill:#e8eff7;stroke:#c7d3e0;stroke-linecap:round;stroke-linejoin:round;stroke-miterlimit:10;stroke-width:1.5"><path d="M28 6.9H9.5M28 11.4H9.5M28 15.9H9.5M28 20.4H9.5M28 24.9H9.5M28 29.4H9.5M28 33.9H9.5" fill="#000000" data-original="#000000"></path></g><path fill="#f05d4f" d="M45.9 1v10.4l-2.8-2.7-2.8 2.7V1z" data-original="#f05d4f"></path><path fill="#ef726c" d="M40.3 1h5.5v2.2h-5.5z" data-original="#ef726c"></path><path d="M45.9 1v10.4l-2.8-2.7-2.8 2.7V1z" style="stroke-linecap:round;stroke-linejoin:round;stroke-miterlimit:10;stroke-width:1.5" fill="none" stroke="#3f456b" stroke-linecap="round" stroke-linejoin="round" stroke-miterlimit="10" stroke-width="1." data-original="#3f456b"></path><circle cx="33" cy="36.7" r="12.8" style="stroke:#3f456b;stroke-linecap:round;stroke-linejoin:round;stroke-miterlimit:10;stroke-width:1.5" data-original="#000000"></circle><path fill="#81d6f7" d="M42.7 36.7c0 5.4-4.4 9.7-9.7 9.7s-9.7-4.4-9.7-9.7c0-1.9.5-3.6 1.4-5.1.1-.2.3-.5.5-.7 1.8-2.4 4.6-4 7.8-4 5.4.1 9.7 4.4 9.7 9.8z" data-original="#81d6f7"></path><g style="stroke-linecap:round;stroke-linejoin:round;stroke-miterlimit:10;stroke-width:1.5;fill:none;stroke:#fff"><path d="M24.2 32.5c-.1.3-.2.5-.4.8M32.8 27c-2.8 0-5.2 1.2-7 3.1" fill="#000000" data-original="#000000"></path></g><path d="M33 49.5v2.8" style="stroke:#3f456b;stroke-linecap:round;stroke-linejoin:round;stroke-miterlimit:10;stroke-width:1.5" data-original="#000000"></path><path fill="#f05d4f" d="M33 52.3c-1.3 0-2.4 1.1-2.4 2.4v7.9c0 1.3 1.1 2.4 2.4 2.4 1.3 0 2.4-1.1 2.4-2.4v-7.9c0-1.3-1.1-2.4-2.4-2.4z" data-original="#f05d4f"></path><path fill="#ef726c" d="M30.6 55.9h4.8v5.6h-4.8z" data-original="#ef726c"></path><path d="M33 52.3c-1.3 0-2.4 1.1-2.4 2.4v7.9c0 1.3 1.1 2.4 2.4 2.4 1.3 0 2.4-1.1 2.4-2.4v-7.9c0-1.3-1.1-2.4-2.4-2.4z" style="stroke-linecap:round;stroke-linejoin:round;stroke-miterlimit:10;stroke-width:1.5" fill="none" stroke="#3f456b" stroke-linecap="round" stroke-linejoin="round" stroke-miterlimit="10" stroke-width="1." data-original="#3f456b"></path></g></svg>