<svg xmlns="http://www.w3.org/2000/svg" xmlns:xlink="http://www.w3.org/1999/xlink" xmlns:svgjs="http://svgjs.com/svgjs" width="512" height="512" x="0" y="0" viewBox="0 0 682.667 682.667" style="enable-background:new 0 0 512 512" xml:space="preserve" class=""><g><defs><clipPath id="a"><path d="M0 512h512V0H0Z" fill="#063852" data-original="#000000" class=""></path></clipPath></defs><g clip-path="url(#a)" transform="matrix(1.33333 0 0 -1.33333 0 682.667)"><path d="m0 0-233.5 49.55v303.349c0 9.54 7.711 17.274 17.223 17.274h167.069C-22.031 370.173 0 348.076 0 320.817Z" style="fill-opacity:1;fill-rule:nonzero;stroke:none" transform="translate(241 45.852)" fill="#eaf6ff" data-original="#eaf6ff" class=""></path><path d="M0 0h-30c27.177 0 49.208-22.098 49.208-49.356v-314.451l30-6.366v320.817C49.208-22.098 27.177 0 0 0" style="fill-opacity:1;fill-rule:nonzero;stroke:none" transform="translate(191.792 416.026)" fill="#d8ecfe" data-original="#d8ecfe" class=""></path><path d="M0 0h-216.277c-9.512 0-17.223 7.734-17.223 17.275V75h187.773C-20.473 75 0 54.527 0 29.273Z" style="fill-opacity:1;fill-rule:nonzero;stroke:none" transform="translate(241 41.991)" fill="#d8ecfe" data-original="#d8ecfe" class=""></path><path d="M0 0h-30c25.254 0 45.727-20.473 45.727-45.727V-75h30v29.273C45.727-20.473 25.254 0 0 0" style="fill-opacity:1;fill-rule:nonzero;stroke:none" transform="translate(195.273 116.991)" fill="#c4e2ff" data-original="#c4e2ff" class=""></path><path d="m0 0 233.5 49.55v303.349c0 9.54-7.711 17.274-17.223 17.274H49.208C22.031 370.173 0 348.076 0 320.817Z" style="fill-opacity:1;fill-rule:nonzero;stroke:none" transform="translate(241 45.852)" fill="#eaf6ff" data-original="#eaf6ff" class=""></path><path d="m0 0 30.103-82.211 126.214 21.185-35.428 103.328Z" style="fill-opacity:1;fill-rule:nonzero;stroke:none" transform="translate(222.297 295.737)" fill="#ffb09e" data-original="#ffb09e" class=""></path><path d="M0 0h-30c9.512 0 17.223-7.734 17.223-17.274v-303.35h30v303.35C17.223-7.734 9.512 0 0 0" style="fill-opacity:1;fill-rule:nonzero;stroke:none" transform="translate(457.277 416.026)" fill="#d8ecfe" data-original="#d8ecfe" class=""></path><path d="M0 0h216.277c9.512 0 17.223 7.734 17.223 17.275V75H45.728C20.473 75 0 54.527 0 29.273Z" style="fill-opacity:1;fill-rule:nonzero;stroke:none" transform="translate(241 41.991)" fill="#d8ecfe" data-original="#d8ecfe" class=""></path><path d="M0 0v-57.725C0-67.266-7.711-75-17.223-75h30C22.289-75 30-67.266 30-57.725V0Z" style="fill-opacity:1;fill-rule:nonzero;stroke:none" transform="translate(444.5 116.991)" fill="#c4e2ff" data-original="#c4e2ff" class=""></path><path d="M0 0c-10.578 1.183-18.194 10.717-17.012 21.295l3.734 33.39 38.307-4.283-3.734-33.39C20.112 6.434 10.578-1.183 0 0" style="fill-opacity:1;fill-rule:nonzero;stroke:none" transform="translate(243.133 164.102)" fill="#ffb09e" data-original="#ffb09e" class=""></path><path d="M0 0h-.001c-10.578 1.183-18.194 10.717-17.012 21.295l3.735 33.39 38.306-4.284-3.733-33.389C20.112 6.434 10.578-1.183 0 0" style="fill-opacity:1;fill-rule:nonzero;stroke:none" transform="translate(281.44 159.819)" fill="#ffb09e" data-original="#ffb09e" class=""></path><path d="M0 0c-10.578 1.183-18.194 10.717-17.012 21.295l3.734 33.39 38.306-4.284-3.733-33.389C20.112 6.434 10.578-1.183 0 0" style="fill-opacity:1;fill-rule:nonzero;stroke:none" transform="translate(319.747 155.536)" fill="#ffb09e" data-original="#ffb09e" class=""></path><path d="M0 0h-155.042l-94.426 13.754a19.743 19.743 0 0 0-16.866 18.418c-.591 10.396 6.994 19.464 17.331 20.72l48.734 5.92c16.904 2.053 30.419 15.022 33.169 31.826l.231 1.407a38.29 38.29 0 0 1-16.442 37.969c-14.42 9.683-33.55 8.449-46.602-3.013a641571.403 641571.403 0 0 1-44.291-38.895c-7.786-6.838-19.654-6.007-26.413 1.848l-.302.351c-6.609 7.68-6.184 19.048.915 26.144a650145.95 650145.95 0 0 1 58.178 58.172 36.861 36.861 0 0 0 26.065 10.796h60.189a36.862 36.862 0 0 0 26.065-10.797l56.785-56.784a42.675 42.675 0 0 1 30.177-12.5H0c5.522 0 10-4.477 10-10V10C10 4.477 5.522 0 0 0" style="fill-opacity:1;fill-rule:nonzero;stroke:none" transform="translate(502 180.872)" fill="#ffcebf" data-original="#ffcebf" class=""></path><path d="m0 0 44.29 38.896a38.223 38.223 0 0 0 10.256 6.448c-13.346 5.689-29.042 3.398-40.255-6.448l-41.324-36.29c.109-.134.204-.275.318-.406l.302-.352C-19.654-6.007-7.786-6.838 0 0" style="fill-opacity:1;fill-rule:nonzero;stroke:none" transform="translate(227.796 268.978)" fill="#ffb09e" data-original="#ffb09e" class=""></path><path d="M0 0c-5.409-3.728-8.942-1.231-8.418 5.316 0 0-1.525 32.958-1.067 34.461a21.819 21.819 0 0 0 1.98 4.558L121.512 267.8l18.769 21.676c6.58 11.396 25.975 10.424 25.975 10.424 11.397-6.58 12.538-16.402 5.959-27.798l-9.434-28.129L33.764 20.509a21.927 21.927 0 0 0-2.87-3.9C29.798 15.423 0 0 0 0" style="fill-opacity:1;fill-rule:nonzero;stroke:none" transform="translate(191.494 162.758)" fill="#ff5474" data-original="#f58a97" class=""></path><path d="M0 0c-8.792 5.075-13.976 5.6-21.42-.429 8.964-7.244 6.739-16.661.795-26.957l-8.396-14.543-136.517-236.454a21.895 21.895 0 0 0-6.529-7.073l-9.883-6.81-.442-5.534c-.524-6.548 6.788-10.769 12.196-7.042l28.129 19.386a21.895 21.895 0 0 1 6.529 7.073L-6.521-54.919 6.87-30.327C13.449-18.931 0 0 0 0" style="fill-opacity:1;fill-rule:nonzero;stroke:none" transform="translate(360.796 461.65)" fill="#e01239" data-original="#f07281" class=""></path><path d="M0 0c-11.396 6.58-25.968 2.675-32.548-8.721l-15.895-27.533 41.268-23.827L8.722-32.548C15.301-21.152 11.396-6.58 0 0" style="fill-opacity:1;fill-rule:nonzero;stroke:none" transform="translate(361.45 466.813)" fill="#fae2c0" data-original="#fef1da" class=""></path><path d="M0 0c-8.791 5.076-19.468 3.907-26.912-2.121 8.963-7.245 11.578-20.131 5.634-30.427l-8.397-14.543 22.5-12.99L8.722-32.548C15.301-21.152 11.396-6.58 0 0" style="fill-opacity:1;fill-rule:nonzero;stroke:none" transform="translate(361.45 466.813)" fill="#fae2c0" data-original="#fae2c0" class=""></path><path d="M0 0a21.87 21.87 0 0 1-.883-4.63l-2.725-34.054c-.524-6.547 6.788-10.769 12.196-7.042l28.129 19.387a21.875 21.875 0 0 1 3.569 3.08z" style="fill-opacity:1;fill-rule:nonzero;stroke:none" transform="translate(182.012 202.534)" fill="#fae2c0" data-original="#fef1da" class=""></path><path d="m0 0 .002.002-22.008 12.707-5.031-8.715a21.882 21.882 0 0 0-6.529-7.072l-9.883-6.811-.442-5.534c-.524-6.547 6.787-10.769 12.196-7.041L-3.566-3.078A21.85 21.85 0 0 1 0 0" style="fill-opacity:1;fill-rule:nonzero;stroke:none" transform="translate(222.295 179.273)" fill="#fae2c0" data-original="#fae2c0" class=""></path><path d="M0 0h-157.542l-94.426 13.754a19.743 19.743 0 0 0-16.866 18.418c-.591 10.396 6.994 19.464 17.331 20.72l48.734 5.92c16.904 2.053 30.419 15.022 33.169 31.826l.231 1.407a38.29 38.29 0 0 1-16.442 37.969z" style="fill-opacity:1;fill-rule:nonzero;stroke:none" transform="translate(504.5 180.872)" fill="#ffcebf" data-original="#ffcebf" class=""></path><path d="M0 0h-30c5.523 0 10-4.477 10-10v-85.336c0-5.523-4.477-10-10-10H0c5.523 0 10 4.477 10 10V-10C10-4.477 5.523 0 0 0" style="fill-opacity:1;fill-rule:nonzero;stroke:none" transform="translate(502 286.208)" fill="#ffb09e" data-original="#ffb09e" class=""></path><path d="M0 0v303.35c0 9.54 7.71 17.28 17.22 17.28h167.07c27.18 0 49.21-22.1 49.21-49.36v-30.35" style="stroke-width:15;stroke-linecap:round;stroke-linejoin:round;stroke-miterlimit:10;stroke-dasharray:none;stroke-opacity:1" transform="translate(7.5 95.4)" fill="none" stroke="#063852" stroke-width="15" stroke-linecap="round" stroke-linejoin="round" stroke-miterlimit="10" stroke-dasharray="none" stroke-opacity="" data-original="#000000" class=""></path><path d="M0 0h102.837c25.255 0 45.727-20.473 45.727-45.727V-75H-67.713c-9.512 0-17.223 7.734-17.223 17.275V0H-35" style="stroke-width:15;stroke-linecap:round;stroke-linejoin:round;stroke-miterlimit:10;stroke-dasharray:none;stroke-opacity:1" transform="translate(92.436 116.991)" fill="none" stroke="#063852" stroke-width="15" stroke-linecap="round" stroke-linejoin="round" stroke-miterlimit="10" stroke-dasharray="none" stroke-opacity="" data-original="#000000" class=""></path><path d="M0 0v30.35c0 27.26 22.03 49.36 49.21 49.36h14.41" style="stroke-width:15;stroke-linecap:round;stroke-linejoin:round;stroke-miterlimit:10;stroke-dasharray:none;stroke-opacity:1" transform="translate(241 336.32)" fill="none" stroke="#063852" stroke-width="15" stroke-linecap="round" stroke-linejoin="round" stroke-miterlimit="10" stroke-dasharray="none" stroke-opacity="" data-original="#000000" class=""></path><path d="M0 0v118.61" style="stroke-width:15;stroke-linecap:round;stroke-linejoin:round;stroke-miterlimit:10;stroke-dasharray:none;stroke-opacity:1" transform="translate(241 45.85)" fill="none" stroke="#063852" stroke-width="15" stroke-linecap="round" stroke-linejoin="round" stroke-miterlimit="10" stroke-dasharray="none" stroke-opacity="" data-original="#000000" class=""></path><path d="M0 0v85.47" style="stroke-width:15;stroke-linecap:round;stroke-linejoin:round;stroke-miterlimit:10;stroke-dasharray:none;stroke-opacity:1" transform="translate(474.5 95.4)" fill="none" stroke="#063852" stroke-width="15" stroke-linecap="round" stroke-linejoin="round" stroke-miterlimit="10" stroke-dasharray="none" stroke-opacity="" data-original="#000000" class=""></path><path d="M0 0h97.641c9.509 0 17.219-7.74 17.219-17.28v-112.54" style="stroke-width:15;stroke-linecap:round;stroke-linejoin:round;stroke-miterlimit:10;stroke-dasharray:none;stroke-opacity:1" transform="translate(359.64 416.03)" fill="none" stroke="#063852" stroke-width="15" stroke-linecap="round" stroke-linejoin="round" stroke-miterlimit="10" stroke-dasharray="none" stroke-opacity="" data-original="#000000" class=""></path><path d="M0 0v0h216.277c9.512 0 17.223 7.734 17.223 17.275V75H45.728C20.473 75 0 54.527 0 29.273Z" style="stroke-width:15;stroke-linecap:round;stroke-linejoin:round;stroke-miterlimit:10;stroke-dasharray:none;stroke-opacity:1" transform="translate(241 41.991)" fill="none" stroke="#063852" stroke-width="15" stroke-linecap="round" stroke-linejoin="round" stroke-miterlimit="10" stroke-dasharray="none" stroke-opacity="" data-original="#000000" class=""></path><path d="M0 0c-.76-10.28 6.74-19.39 17.07-20.55 10.58-1.18 20.12 6.44 21.3 17.01l1.3 11.6" style="stroke-width:15;stroke-linecap:round;stroke-linejoin:round;stroke-miterlimit:10;stroke-dasharray:none;stroke-opacity:1" transform="translate(226.06 184.65)" fill="none" stroke="#063852" stroke-width="15" stroke-linecap="round" stroke-linejoin="round" stroke-miterlimit="10" stroke-dasharray="none" stroke-opacity="" data-original="#000000" class=""></path><path d="m0 0-1.149-10.32C-2.34-20.9-11.87-28.51-22.449-27.33-33.029-26.15-40.64-16.61-39.46-6.04l1.301 11.6" style="stroke-width:15;stroke-linecap:round;stroke-linejoin:round;stroke-miterlimit:10;stroke-dasharray:none;stroke-opacity:1" transform="translate(303.89 187.15)" fill="none" stroke="#063852" stroke-width="15" stroke-linecap="round" stroke-linejoin="round" stroke-miterlimit="10" stroke-dasharray="none" stroke-opacity="" data-original="#000000" class=""></path><path d="m0 0-1.01-9.04c-1.179-10.58-10.71-18.2-21.29-17.01-10.58 1.18-18.2 10.71-17.01 21.29l1.15 10.32" style="stroke-width:15;stroke-linecap:round;stroke-linejoin:round;stroke-miterlimit:10;stroke-dasharray:none;stroke-opacity:1" transform="translate(342.05 181.59)" fill="none" stroke="#063852" stroke-width="15" stroke-linecap="round" stroke-linejoin="round" stroke-miterlimit="10" stroke-dasharray="none" stroke-opacity="" data-original="#000000" class=""></path><path d="m0 0 11.8-11.797c8-8.01 18.859-12.5 30.179-12.5H87.02" style="stroke-width:15;stroke-linecap:round;stroke-linejoin:round;stroke-miterlimit:10;stroke-dasharray:none;stroke-opacity:1" transform="translate(417.48 310.507)" fill="none" stroke="#063852" stroke-width="15" stroke-linecap="round" stroke-linejoin="round" stroke-miterlimit="10" stroke-dasharray="none" stroke-opacity="" data-original="#000000" class=""></path><path d="M0 0h15.5c9.771 0 19.15-3.88 26.061-10.8l20.123-20.119" style="stroke-width:15;stroke-linecap:round;stroke-linejoin:round;stroke-miterlimit:10;stroke-dasharray:none;stroke-opacity:1" transform="translate(330.93 366.29)" fill="none" stroke="#063852" stroke-width="15" stroke-linecap="round" stroke-linejoin="round" stroke-miterlimit="10" stroke-dasharray="none" stroke-opacity="" data-original="#000000" class=""></path><path d="M0 0a38.28 38.28 0 0 0 32.64-44.12l-.23-1.41C29.66-62.33 16.14-75.3-.76-77.36l-47.21-5.74-1.52-.18c-9.96-1.2-17.36-9.66-17.36-19.57a19.617 19.617 0 0 1 2.21-9.1c2.85-5.51 8.23-9.52 14.68-10.46l94.43-13.76h157.54" style="stroke-width:15;stroke-linecap:round;stroke-linejoin:round;stroke-miterlimit:10;stroke-dasharray:none;stroke-opacity:1" transform="translate(302.49 317.04)" fill="none" stroke="#063852" stroke-width="15" stroke-linecap="round" stroke-linejoin="round" stroke-miterlimit="10" stroke-dasharray="none" stroke-opacity="" data-original="#000000" class=""></path><path d="M0 0c-5.75-.49-11.65 1.69-15.71 6.41l-.3.35c-6.61 7.68-6.18 19.04.92 26.14l39 39 19.18 19.18c4.15 4.15 9.19 7.21 14.681 8.99" style="stroke-width:15;stroke-linecap:round;stroke-linejoin:round;stroke-miterlimit:10;stroke-dasharray:none;stroke-opacity:1" transform="translate(217.09 264.42)" fill="none" stroke="#063852" stroke-width="15" stroke-linecap="round" stroke-linejoin="round" stroke-miterlimit="10" stroke-dasharray="none" stroke-opacity="" data-original="#000000" class=""></path><path d="m0 0 115.65 200.32a23.69 23.69 0 0 1 3.2 11.9c0 8.23-4.27 16.24-11.92 20.65-11.4 6.58-25.97 2.68-32.55-8.72l-144.91-251c-1.63-2.81-2.6-5.95-2.86-9.19l-2.73-34.05c-.52-6.55 6.79-10.77 12.2-7.04l28.13 19.39c2.67 1.84 4.9 4.25 6.53 7.07l12.59 21.82" style="stroke-width:15;stroke-linecap:round;stroke-linejoin:round;stroke-miterlimit:10;stroke-dasharray:none;stroke-opacity:1" transform="translate(254.52 233.94)" fill="none" stroke="#063852" stroke-width="15" stroke-linecap="round" stroke-linejoin="round" stroke-miterlimit="10" stroke-dasharray="none" stroke-opacity="" data-original="#000000" class=""></path><path d="m0 0-41.269 23.827" style="stroke-width:15;stroke-linecap:round;stroke-linejoin:round;stroke-miterlimit:10;stroke-dasharray:none;stroke-opacity:1" transform="translate(354.274 406.731)" fill="none" stroke="#063852" stroke-width="15" stroke-linecap="round" stroke-linejoin="round" stroke-miterlimit="10" stroke-dasharray="none" stroke-opacity="" data-original="#000000" class=""></path><path d="m0 0 40.291-23.262" style="stroke-width:15;stroke-linecap:round;stroke-linejoin:round;stroke-miterlimit:10;stroke-dasharray:none;stroke-opacity:1" transform="translate(182.01 202.535)" fill="none" stroke="#063852" stroke-width="15" stroke-linecap="round" stroke-linejoin="round" stroke-miterlimit="10" stroke-dasharray="none" stroke-opacity="" data-original="#000000" class=""></path><path d="M0 0h144.512" style="stroke-width:15;stroke-linecap:round;stroke-linejoin:round;stroke-miterlimit:10;stroke-dasharray:none;stroke-opacity:1" transform="translate(48.75 371.026)" fill="none" stroke="#063852" stroke-width="15" stroke-linecap="round" stroke-linejoin="round" stroke-miterlimit="10" stroke-dasharray="none" stroke-opacity="" data-original="#000000" class=""></path><path d="M0 0h129.512" style="stroke-width:15;stroke-linecap:round;stroke-linejoin:round;stroke-miterlimit:10;stroke-dasharray:none;stroke-opacity:1" transform="translate(48.75 318.526)" fill="none" stroke="#063852" stroke-width="15" stroke-linecap="round" stroke-linejoin="round" stroke-miterlimit="10" stroke-dasharray="none" stroke-opacity="" data-original="#000000" class=""></path><path d="M0 0h114.512" style="stroke-width:15;stroke-linecap:round;stroke-linejoin:round;stroke-miterlimit:10;stroke-dasharray:none;stroke-opacity:1" transform="translate(48.75 266.026)" fill="none" stroke="#063852" stroke-width="15" stroke-linecap="round" stroke-linejoin="round" stroke-miterlimit="10" stroke-dasharray="none" stroke-opacity="" data-original="#000000" class=""></path><path d="M0 0h99.512" style="stroke-width:15;stroke-linecap:round;stroke-linejoin:round;stroke-miterlimit:10;stroke-dasharray:none;stroke-opacity:1" transform="translate(48.75 213.526)" fill="none" stroke="#063852" stroke-width="15" stroke-linecap="round" stroke-linejoin="round" stroke-miterlimit="10" stroke-dasharray="none" stroke-opacity="" data-original="#000000" class=""></path><path d="M0 0h84.512" style="stroke-width:15;stroke-linecap:round;stroke-linejoin:round;stroke-miterlimit:10;stroke-dasharray:none;stroke-opacity:1" transform="translate(48.75 161.026)" fill="none" stroke="#063852" stroke-width="15" stroke-linecap="round" stroke-linejoin="round" stroke-miterlimit="10" stroke-dasharray="none" stroke-opacity="" data-original="#000000" class=""></path></g></g></svg>