<?xml version="1.0" encoding="UTF-8"?> <svg xmlns="http://www.w3.org/2000/svg" xmlns:xlink="http://www.w3.org/1999/xlink" version="1.1" id="Layer_1" x="0px" y="0px" viewBox="0 0 500 500" style="enable-background:new 0 0 500 500;" xml:space="preserve"> <style type="text/css"> .st0{fill:none;stroke:#E01239;stroke-width:15;stroke-miterlimit:10;} .st1{fill:#063852;} </style> <circle class="st0" cx="249.98" cy="249.56" r="237.44"></circle> <g> <path class="st1" d="M401,199.87c-0.87,3.95-1.61,7.94-2.63,11.84c-3.52,13.44-10.05,25.27-19.29,35.59 c-1.29,1.43-1.91,2.97-2.15,4.8c-1.58,11.76,1.61,22.01,9.6,30.78c2.77,3.04,3.18,5.71,1.33,8.37c-1.37,2-3.34,2.7-5.71,2.65 c-16.46-0.39-30.9-5.99-43.23-16.89c-1.47-1.29-2.6-1.61-4.46-1.01c-10.15,3.29-20.63,4.88-31.25,5.56 c-1.66,0.1-2.43,0.53-2.62,2.38c-2.29,22.46-12.57,40.87-29.3,55.54c-23.29,20.41-50.82,28.37-81.45,26.4 c-10.53-0.68-20.88-2.4-30.93-5.67c-1.61-0.52-2.51,0.03-3.63,1.03c-12.24,10.85-26.54,16.51-42.89,17.05 c-3.07,0.1-5.54-0.72-6.86-3.71c-1.29-2.93-0.05-5.19,1.91-7.33c7.93-8.65,11.13-18.81,9.63-30.48c-0.27-2.06-1.01-3.71-2.4-5.31 c-14.13-16.17-21.88-34.89-21.64-56.52c0.23-21.75,8.75-40.18,23.73-55.57c19.3-19.81,43.2-30.28,70.47-33.33 c5.48-0.61,5.53-0.43,6.36-5.77c3.55-22.91,14.79-41.41,32.8-55.62c25.74-20.3,55.19-27.05,87.32-22.02 c24.64,3.86,46.13,14.41,63.61,32.44c13.06,13.48,21.28,29.47,23.19,48.4c0.02,0.2,0,0.4,0,0.6c0.17,0.04,0.33,0.09,0.5,0.14 c-0.15,0.1-0.29,0.14-0.43,0.12c-0.02,0-0.05,0-0.07-0.01c-0.12-0.03-0.23-0.1-0.35-0.23c-1.27-4.33-1.54-8.87-2.81-13.22 c-4.73-16.31-13.76-29.76-26.44-40.86c-17.93-15.69-38.89-24.76-62.39-27.35c-32-3.51-60.99,4.36-85.45,25.82 c-16.31,14.33-26.43,32.36-28.86,54.3c-0.29,2.65-1.48,3.79-4.74,3.92c-5.35,0.23-10.55,1.22-15.74,2.35 c-21.43,4.62-40.13,14.52-55.63,30c-14.26,14.25-22.71,31.53-24.19,51.82c-0.92,12.72,1.49,24.98,6.5,36.74 c3.46,8.11,8.01,15.57,13.87,22.09c3.74,4.16,4.37,8.98,4.02,14.01c-0.63,9.06-3.71,17.22-10.14,23.9 c-1.42,1.49-2.48,3.19-2.15,5.39c0.43,2.85,2.56,4.57,6.18,4.47c12.18-0.32,23.51-3.58,33.81-10.22c3.13-2.01,6.14-4.17,8.92-6.65 c1.42-1.28,2.85-1.56,4.68-1c13.71,4.23,27.78,6.28,42.09,5.8c24.98-0.85,47.63-8.43,66.99-24.68 c16.43-13.79,26.95-31.11,30.65-52.41c0.14-0.79,0.3-1.58,0.37-2.38c0.41-4.3,1.17-5.16,5.51-5.4c9.96-0.54,19.69-2.38,29.2-5.34 c2.15-0.67,3.59,0.09,5.15,1.42c9.33,8.02,19.96,13.36,32.13,15.46c3.15,0.55,6.33,1.04,9.54,1.05c2.63,0.01,5.07-0.38,6.31-3.11 c1.31-2.86-0.06-5.06-1.93-7.04c-4.2-4.5-7.04-9.73-8.6-15.68c-1.4-5.31-1.86-10.65-0.69-16.09c0.37-1.72,1.18-3.14,2.33-4.47 c9.7-11.19,16.55-23.86,19.75-38.42c0.46-2.06,0.68-4.16,1.18-6.21C399.78,201.21,399.48,199.92,401,199.87z"></path> <path class="st1" d="M141.12,263.64c0.06-3.22,2.74-5.88,5.97-5.89c3.21-0.02,5.93,2.61,6.03,5.83c0.1,3.33-2.64,6.17-5.97,6.2 C143.82,269.79,141.05,266.98,141.12,263.64z"></path> <path class="st1" d="M251.65,260.04c1.38,1.78,1.78,3.77,0.87,5.93c-1,2.35-2.79,3.65-5.31,3.77c-2.29,0.12-4.6,0.04-6.91,0.05 h-66.72c-0.8,0-1.6,0.03-2.4-0.02c-3.45-0.21-5.93-2.65-6.01-5.89c-0.07-3.37,2.46-6.06,6.06-6.12c6.71-0.1,13.42-0.03,20.13-0.03 h17.73c12.33,0,24.64,0.02,36.97-0.02C248.31,257.71,250.26,258.24,251.65,260.04z"></path> <path class="st1" d="M252.98,299.76c0.08,2.99-2.11,5.64-5.13,6.1c-0.98,0.15-1.99,0.09-3,0.09h-95.58c-0.8,0-1.61,0.04-2.4-0.03 c-3.38-0.27-5.82-2.89-5.75-6.13c0.07-3.13,2.47-5.6,5.72-5.86c0.9-0.07,1.8-0.02,2.7-0.02c15.83-0.01,31.66,0,47.49,0 c15.93,0,31.86-0.01,47.79,0c1.01,0,2.02-0.06,3,0.08C250.74,294.4,252.91,296.89,252.98,299.76z"></path> <path class="st1" d="M401,190.82c-0.54-0.9-0.28-1.87-0.28-2.82c0-0.07,0-0.15-0.01-0.23c0-0.09-0.01-0.18-0.02-0.27 c-0.07-1.06,0.15-2.14-0.11-3.19c-0.02-0.09-0.04-0.17-0.07-0.26c0-0.2,0.02-0.4,0-0.6c-1.91-18.93-10.13-34.92-23.19-48.4 c-17.47-18.03-38.96-28.58-63.61-32.44c-32.13-5.03-61.58,1.72-87.32,22.02c-18,14.21-29.25,32.71-32.8,55.62 c-0.83,5.35-0.88,5.16-6.36,5.77c-27.27,3.05-51.17,13.52-70.47,33.33c-14.99,15.38-23.51,33.82-23.73,55.57 c-0.23,21.64,7.52,40.35,21.64,56.52c1.39,1.6,2.13,3.26,2.4,5.31c1.5,11.67-1.7,21.83-9.63,30.48c-1.96,2.15-3.2,4.4-1.91,7.33 c1.32,3,3.79,3.82,6.86,3.71c16.35-0.55,30.65-6.21,42.89-17.05c1.13-1,2.03-1.55,3.63-1.03c10.05,3.26,20.4,4.98,30.93,5.67 c30.63,1.98,58.16-5.98,81.45-26.4c16.73-14.67,27.01-33.09,29.3-55.54c0.19-1.85,0.96-2.28,2.62-2.38 c10.62-0.68,21.1-2.27,31.25-5.56c1.87-0.6,2.99-0.29,4.46,1.01c12.33,10.9,26.77,16.51,43.23,16.89c2.37,0.06,4.33-0.64,5.71-2.65 c1.85-2.66,1.44-5.33-1.33-8.37c-7.99-8.76-11.18-19.01-9.6-30.78c0.24-1.83,0.86-3.37,2.15-4.8 c9.24-10.32,15.77-22.16,19.29-35.59c1.02-3.91,1.76-7.9,2.63-11.84v-3.02c-0.38-0.4-0.38-0.8,0-1.21V190.82z M370.11,239.16 c-3.35,3.71-4.64,7.77-5.24,12.41c-1.29,9.91,0.56,19.28,5.01,28.61c-9.83-2.51-18.11-7-24.8-14c-3.48-3.64-6.69-4.41-11.43-2.61 c-9.9,3.75-20.33,5.17-30.85,5.99c-1.41,0.11-2-0.21-2.15-1.65c-2.41-23.73-13.81-42.55-31.72-58.01c0.99-0.68,2.07-0.36,3.06-0.37 c24.27-0.02,48.52-0.02,72.79-0.02c1,0,2.02,0.06,3-0.09c2.9-0.45,5.04-2.97,5.08-5.85c0.05-3-2.17-5.62-5.21-6.04 c-0.99-0.14-2-0.07-3-0.07c-30.58,0-61.16-0.01-91.74,0.02c-1.95,0-3.69-0.33-5.46-1.18c-12.41-5.93-25.47-9.49-39.2-10.37 c-2.48-0.16-3.19-0.88-2.82-3.4c2.7-18.73,11.56-34.07,25.74-46.25c20.95-17.95,45.54-24.96,72.79-22.75 c23.94,1.94,45.06,10.74,62.4,27.63c14.79,14.41,23.25,31.81,22.52,52.87C388.27,211.35,381.66,226.41,370.11,239.16z M264.86,329.11c-20.87,19.15-45.93,26.48-73.87,24.75c-11.33-0.7-22.42-2.7-33.11-6.72c-3.1-1.17-5.55-0.02-7.78,2.32 c-7.06,7.42-15.58,12.38-26.03,15.13c5.05-10.53,6.64-21.02,4.49-32.06c-0.61-3.15-1.83-5.76-4.02-8.18 c-12.03-13.21-19-28.67-19.44-46.68c-0.51-20.7,7.78-37.93,22.43-51.98c22.34-21.43,49.43-30.08,80.01-27.75 c22.58,1.7,42.56,10.07,58.93,26C297.3,253.98,296.65,299.92,264.86,329.11z M345.59,161.29c-12.22-0.01-24.44,0-36.66,0 c-12.22,0-24.44-0.02-36.66,0c-4.42,0.01-7.13,2.25-7.21,5.89c-0.07,3.75,2.72,6.15,7.26,6.15c24.44,0.02,48.88,0.02,73.33,0 c4.41,0,7.13-2.25,7.21-5.89C352.94,163.68,350.14,161.3,345.59,161.29z M246.98,161.3c-3.22,0.01-5.92,2.65-5.99,5.88 c-0.07,3.34,2.68,6.16,6.01,6.15c3.33-0.01,6.08-2.85,5.99-6.17C252.9,163.93,250.18,161.3,246.98,161.3z"></path> <path class="st1" d="M401,184.19v3.61c-0.1,0.13-0.19,0.18-0.28,0.19c-0.1,0.01-0.19-0.09-0.27-0.27c0.02-1.14,0.03-2.28,0.05-3.42 v-0.25C400.67,184.1,400.83,184.15,401,184.19z"></path> <path class="st1" d="M400.45,187.72c0.18,0.04,0.36,0.07,0.54,0.08c0,1,0,2.01,0,3.01C400,189.93,400.48,188.78,400.45,187.72z"></path> <path class="st1" d="M401,196.85c-0.77-0.4-0.61-0.8,0-1.21C401,196.05,401,196.45,401,196.85z"></path> <path class="st1" d="M141.12,263.64c0.06-3.22,2.74-5.88,5.97-5.89c3.21-0.02,5.93,2.61,6.03,5.83c0.1,3.33-2.64,6.17-5.97,6.2 C143.82,269.79,141.05,266.98,141.12,263.64z"></path> <path class="st1" d="M165.18,263.88c-0.07-3.37,2.46-6.06,6.06-6.12c6.71-0.1,13.42-0.03,20.13-0.03h17.73 c12.33,0,24.64,0.02,36.97-0.02c2.24-0.01,4.19,0.52,5.58,2.32c1.38,1.78,1.78,3.77,0.87,5.93c-1,2.35-2.79,3.65-5.31,3.77 c-2.29,0.12-4.6,0.04-6.91,0.05h-66.72c-0.8,0-1.6,0.03-2.4-0.02C167.74,269.56,165.26,267.12,165.18,263.88z"></path> <path class="st1" d="M252.98,299.76c0.08,2.99-2.11,5.64-5.13,6.1c-0.98,0.15-1.99,0.09-3,0.09h-95.58c-0.8,0-1.61,0.04-2.4-0.03 c-3.38-0.27-5.82-2.89-5.75-6.13c0.07-3.13,2.47-5.6,5.72-5.86c0.9-0.07,1.8-0.02,2.7-0.02c15.83-0.01,31.66,0,47.49,0 c15.93,0,31.86-0.01,47.79,0c1.01,0,2.02-0.06,3,0.08C250.74,294.4,252.91,296.89,252.98,299.76z"></path> <path class="st1" d="M252.98,167.15c0.09,3.33-2.66,6.17-5.99,6.17c-3.33,0.01-6.08-2.81-6.01-6.15c0.07-3.22,2.77-5.87,5.99-5.88 C250.18,161.3,252.9,163.93,252.98,167.15z"></path> <path class="st1" d="M352.85,167.44c-0.08,3.64-2.8,5.89-7.21,5.89c-24.44,0.02-48.88,0.02-73.33,0c-4.54,0-7.33-2.4-7.26-6.15 c0.08-3.64,2.79-5.89,7.21-5.89c12.22-0.02,24.44,0,36.66,0c12.22,0,24.44-0.01,36.66,0C350.14,161.3,352.94,163.68,352.85,167.44z "></path> <path class="st1" d="M252.98,299.76c0.08,2.99-2.11,5.64-5.13,6.1c-0.98,0.15-1.99,0.09-3,0.09h-95.58c-0.8,0-1.61,0.04-2.4-0.03 c-3.38-0.27-5.82-2.89-5.75-6.13c0.07-3.13,2.47-5.6,5.72-5.86c0.9-0.07,1.8-0.02,2.7-0.02c15.83-0.01,31.66,0,47.49,0 c15.93,0,31.86-0.01,47.79,0c1.01,0,2.02-0.06,3,0.08C250.74,294.4,252.91,296.89,252.98,299.76z"></path> <path class="st1" d="M252.52,265.97c-1,2.35-2.79,3.65-5.31,3.77c-2.29,0.12-4.6,0.04-6.91,0.05h-66.72c-0.8,0-1.6,0.03-2.4-0.02 c-3.45-0.21-5.93-2.65-6.01-5.89c-0.07-3.37,2.46-6.06,6.06-6.12c6.71-0.1,13.42-0.03,20.13-0.03h17.73 c12.33,0,24.64,0.02,36.97-0.02c2.24-0.01,4.19,0.52,5.58,2.32C253.04,261.82,253.44,263.81,252.52,265.97z"></path> <path class="st1" d="M153.11,263.58c0.1,3.33-2.64,6.17-5.97,6.2c-3.33,0.02-6.09-2.79-6.03-6.13c0.06-3.22,2.74-5.88,5.97-5.89 C150.29,257.73,153.02,260.36,153.11,263.58z"></path> <path class="st1" d="M352.85,167.44c-0.08,3.64-2.8,5.89-7.21,5.89c-24.44,0.02-48.88,0.02-73.33,0c-4.54,0-7.33-2.4-7.26-6.15 c0.08-3.64,2.79-5.89,7.21-5.89c12.22-0.02,24.44,0,36.66,0c12.22,0,24.44-0.01,36.66,0C350.14,161.3,352.94,163.68,352.85,167.44z "></path> <path class="st1" d="M252.98,167.15c0.09,3.33-2.66,6.17-5.99,6.17c-3.33,0.01-6.08-2.81-6.01-6.15c0.07-3.22,2.77-5.87,5.99-5.88 C250.18,161.3,252.9,163.93,252.98,167.15z"></path> </g> </svg> 