<svg xmlns="http://www.w3.org/2000/svg" xmlns:xlink="http://www.w3.org/1999/xlink" id="Layer_1" x="0px" y="0px" viewBox="0 0 500 500" style="enable-background:new 0 0 500 500;" xml:space="preserve"> <style type="text/css"> .st0{fill:#063852;} .st1{fill:none;stroke:#E01239;stroke-width:15;stroke-miterlimit:10;} </style> <g> <path class="st0" d="M215.99,287.28c-1.62,5.05-6.92,7.75-12.47,5.88c-13.08-4.42-26.4-5.64-40.04-3.82 c-5.74,0.77-11.24,2.43-16.77,4.07c-4.02,1.19-7.99-0.28-10.33-3.52c-2.29-3.18-2.39-7.67-0.22-10.93c1.4-2.11,3.43-3.29,5.78-4.09 c11.22-3.82,22.77-5.59,34-5.69c11.81,0.15,22.7,2.13,33.3,5.74C214.91,276.84,217.7,281.97,215.99,287.28z"></path> <path class="st0" d="M136.26,237.27c-2.22-3.22-2.23-7.78,0.03-10.94c1.39-1.95,3.33-3.09,5.59-3.86 c11.21-3.85,22.76-5.63,32.22-5.67c13.82,0.02,24.9,2.14,35.67,5.88c5.26,1.82,7.83,6.99,6.24,12.1c-1.54,4.96-6.81,7.82-12.1,6.04 c-13.39-4.5-27-5.79-40.96-3.81c-5.62,0.8-11.02,2.5-16.47,4.01C142.51,242.13,138.52,240.56,136.26,237.27z"></path> <path class="st0" d="M134.72,180.82c-0.6-4.71,1.48-8.58,5.97-10.24c11.42-4.22,23.25-6.23,33.57-6.14 c13.39,0.03,24.59,2.06,35.48,5.81c5.22,1.8,7.84,6.98,6.27,12.08c-1.54,4.98-6.72,7.77-12.08,6.1 c-8.45-2.63-16.97-4.56-25.87-4.76c-9.53-0.22-18.81,1.05-27.89,3.87c-2.29,0.7-4.55,1.66-7.03,1.37 C138.77,188.39,135.25,184.99,134.72,180.82z"></path> <path class="st0" d="M361.38,222.59c-10.68-3.67-21.66-5.75-34.9-5.8c-9.92,0.06-21.47,1.81-32.69,5.67 c-2.25,0.77-4.21,1.87-5.61,3.82c-2.31,3.22-2.34,7.67-0.1,10.94c2.28,3.33,6.26,4.94,10.19,3.84c5.45-1.52,10.85-3.22,16.47-4.03 c13.95-1.99,27.58-0.72,40.96,3.79c5.33,1.79,10.49-0.97,12.15-5.97C369.56,229.75,366.81,224.45,361.38,222.59z M361.65,275.13 c-10.66-3.77-21.66-5.77-33.63-5.95c-11.28,0.07-22.93,1.86-34.26,5.7c-3.52,1.19-6.08,3.3-7.01,6.98 c-1.83,7.28,4.57,13.54,11.87,11.52c5.66-1.56,11.26-3.3,17.1-4.08c13.65-1.8,26.96-0.44,40.03,3.93c5.3,1.78,10.5-1.01,12.14-6 C369.52,282.25,366.89,276.98,361.65,275.13z M361.43,170.19c-10.67-3.71-21.66-5.7-32.98-5.76c-12.04,0.03-23.81,1.75-35.19,5.78 c-4.68,1.66-7.26,5.58-6.78,10.11c0.47,4.5,3.76,7.93,8.3,8.6c2.7,0.4,5.15-0.71,7.65-1.43c10.67-3.09,21.52-4.39,32.64-3.52 c7.28,0.57,14.16,2.74,21.16,4.5c5.36,1.35,10.18-1.38,11.72-6.31C369.49,177.19,366.75,172.04,361.43,170.19z M361.43,170.19 c-10.67-3.71-21.66-5.7-32.98-5.76c-12.04,0.03-23.81,1.75-35.19,5.78c-4.68,1.66-7.26,5.58-6.78,10.11c0.47,4.5,3.76,7.93,8.3,8.6 c2.7,0.4,5.15-0.71,7.65-1.43c10.67-3.09,21.52-4.39,32.64-3.52c7.28,0.57,14.16,2.74,21.16,4.5c5.36,1.35,10.18-1.38,11.72-6.31 C369.49,177.19,366.75,172.04,361.43,170.19z M361.65,275.13c-10.66-3.77-21.66-5.77-33.63-5.95c-11.28,0.07-22.93,1.86-34.26,5.7 c-3.52,1.19-6.08,3.3-7.01,6.98c-1.83,7.28,4.57,13.54,11.87,11.52c5.66-1.56,11.26-3.3,17.1-4.08c13.65-1.8,26.96-0.44,40.03,3.93 c5.3,1.78,10.5-1.01,12.14-6C369.52,282.25,366.89,276.98,361.65,275.13z M361.38,222.59c-10.68-3.67-21.66-5.75-34.9-5.8 c-9.92,0.06-21.47,1.81-32.69,5.67c-2.25,0.77-4.21,1.87-5.61,3.82c-2.31,3.22-2.34,7.67-0.1,10.94c2.28,3.33,6.26,4.94,10.19,3.84 c5.45-1.52,10.85-3.22,16.47-4.03c13.95-1.99,27.58-0.72,40.96,3.79c5.33,1.79,10.49-0.97,12.15-5.97 C369.56,229.75,366.81,224.45,361.38,222.59z M361.38,222.59c-10.68-3.67-21.66-5.75-34.9-5.8c-9.92,0.06-21.47,1.81-32.69,5.67 c-2.25,0.77-4.21,1.87-5.61,3.82c-2.31,3.22-2.34,7.67-0.1,10.94c2.28,3.33,6.26,4.94,10.19,3.84c5.45-1.52,10.85-3.22,16.47-4.03 c13.95-1.99,27.58-0.72,40.96,3.79c5.33,1.79,10.49-0.97,12.15-5.97C369.56,229.75,366.81,224.45,361.38,222.59z M361.65,275.13 c-10.66-3.77-21.66-5.77-33.63-5.95c-11.28,0.07-22.93,1.86-34.26,5.7c-3.52,1.19-6.08,3.3-7.01,6.98 c-1.83,7.28,4.57,13.54,11.87,11.52c5.66-1.56,11.26-3.3,17.1-4.08c13.65-1.8,26.96-0.44,40.03,3.93c5.3,1.78,10.5-1.01,12.14-6 C369.52,282.25,366.89,276.98,361.65,275.13z M361.43,170.19c-10.67-3.71-21.66-5.7-32.98-5.76c-12.04,0.03-23.81,1.75-35.19,5.78 c-4.68,1.66-7.26,5.58-6.78,10.11c0.47,4.5,3.76,7.93,8.3,8.6c2.7,0.4,5.15-0.71,7.65-1.43c10.67-3.09,21.52-4.39,32.64-3.52 c7.28,0.57,14.16,2.74,21.16,4.5c5.36,1.35,10.18-1.38,11.72-6.31C369.49,177.19,366.75,172.04,361.43,170.19z M294.78,188.92 c2.7,0.4,5.15-0.71,7.65-1.43c10.67-3.09,21.52-4.39,32.64-3.52c7.28,0.57,14.16,2.74,21.16,4.5c5.36,1.35,10.18-1.38,11.72-6.31 c1.55-4.97-1.19-10.11-6.51-11.96c-10.67-3.71-21.66-5.7-32.98-5.76c-12.04,0.03-23.81,1.75-35.19,5.78 c-4.68,1.66-7.26,5.58-6.78,10.11C286.95,184.82,290.24,188.25,294.78,188.92z M361.65,275.13c-10.66-3.77-21.66-5.77-33.63-5.95 c-11.28,0.07-22.93,1.86-34.26,5.7c-3.52,1.19-6.08,3.3-7.01,6.98c-1.83,7.28,4.57,13.54,11.87,11.52 c5.66-1.56,11.26-3.3,17.1-4.08c13.65-1.8,26.96-0.44,40.03,3.93c5.3,1.78,10.5-1.01,12.14-6 C369.52,282.25,366.89,276.98,361.65,275.13z M298.28,241.05c5.45-1.52,10.85-3.22,16.47-4.03c13.95-1.99,27.58-0.72,40.96,3.79 c5.33,1.79,10.49-0.97,12.15-5.97c1.71-5.1-1.04-10.39-6.47-12.26c-10.68-3.67-21.66-5.75-34.9-5.8 c-9.92,0.06-21.47,1.81-32.69,5.67c-2.25,0.77-4.21,1.87-5.61,3.82c-2.31,3.22-2.34,7.67-0.1,10.94 C290.36,240.53,294.34,242.15,298.28,241.05z M404.18,131.46c-24.44-7.66-49.53-11.28-75.07-11.99 c-7.44-0.21-14.89,0.57-22.32,1.11c-16.84,1.22-33.33,4.42-49.54,9.01c-4.01,1.14-7.67,1.15-11.68-0.01 c-23.14-6.73-46.86-9.89-70.92-10.07c-6.9-0.05-13.84,0.48-20.74,1.11c-18.92,1.71-37.45,5.31-55.56,11.01 c-6.79,2.13-8.67,4.88-8.67,12.04c-0.01,64.75-0.01,129.51,0,194.25c0,8.12,4.97,12.17,12.93,10.55c3.45-0.7,3.47-0.7,3.47,2.94 c0.02,8.52-0.02,17.03,0.02,25.55c0.02,3.29,0.44,6.53,2.43,9.3c3.33,4.66,8.05,4.84,13.05,3.88c30.44-5.85,60.91-11.61,91.33-17.6 c4.35-0.85,6.93-0.33,9.67,3.63c6.64,9.59,16.51,14.77,27.95,14.74c12.73-0.03,23.4-5.56,30.5-16.66c1.52-2.37,3.1-3.19,5.96-2.64 c28.18,5.42,56.39,10.61,84.59,15.95c5.37,1.02,10.74,2.06,16.15,2.81c7.73,1.07,12.63-3.14,12.85-10.9 c0.04-1.26,0.02-2.52,0.02-3.78c0.01-7.89,0-15.76,0-23.65c0-1.7,0.11-3.13,2.44-3.14c5.26-0.03,8.76-2.44,9.88-7.8V140.52 C412.42,135.16,408.82,132.91,404.18,131.46z M390.38,324.9c-20.83-5.39-42.04-8.15-63.54-8.12c-21.29,0.03-42.27,2.84-62.9,8.19 c-2.2,0.57-3.03,0.53-3.03-2.22c0.09-56.95,0.07-113.92,0.02-170.87c0-1.89,0.49-2.68,2.39-3.19c26.35-7.22,53.12-10.28,80.41-8.32 c16.28,1.17,32.22,4.21,47.98,8.37c2.2,0.58,2.05,1.89,2.05,3.49c-0.02,26.79-0.02,53.59-0.02,80.39v5.04 c0,28.16-0.04,56.32,0.06,84.49C393.82,325.02,393.35,325.66,390.38,324.9z M378.28,368.32c-21-3.98-42.01-7.88-63.02-11.8 c-9.27-1.74-18.52-3.56-27.81-5.19c-1.64-0.29-2.14-0.88-1.97-2.39c0.06-0.52,0.01-1.05,0.01-1.57c0-7.7,0-7.66,7.72-8.78 c12.59-1.83,25.22-2.86,32.64-2.68c21.31,0.32,37.07,2.48,52.7,5.81c1.51,0.32,2.08,0.89,2.05,2.48 c-0.07,7.45-0.09,14.91,0.02,22.36C380.66,368.58,380,368.65,378.28,368.32z M266.25,357.35c-0.58,7.64-7.77,13.63-15.63,13.36 c-8.07-0.28-14.67-6.79-14.81-14.62c-0.06-3.25,0.04-6.5-0.05-9.75c-0.05-1.71,0.13-2.43,2.23-1.83c4.61,1.31,9.12,3.87,13.93,3.37 c4.71-0.49,9.28-2.29,14.38-3.64C266.31,348.79,266.57,353.09,266.25,357.35z M216.05,351.18c-1.71,1.65-5.3,1.37-8.08,1.9 c-26.86,5.15-53.72,10.3-80.59,15.45c-0.2,0.04-0.41,0.01-0.88,0.01c0-8.6,0.02-17.2-0.02-25.8c-0.01-1.16,0.4-1.53,1.56-1.77 c19.62-4.08,39.43-5.8,59.45-4.68c8.71,0.48,17.34,1.58,25.96,2.86c2.3,0.34,3.65,0.88,3.26,3.57 C216.33,345.59,217.97,349.32,216.05,351.18z M176.58,316.77c-20.86-0.08-41.46,2.43-61.73,7.51c-5.73,1.44-5.74,1.4-5.74-4.41 c0-55.7,0.02-111.4-0.06-167.08c-0.01-2.67,0.71-3.63,3.37-4.35c26.7-7.29,53.81-10.07,81.4-7.91c15.63,1.22,30.94,4.25,46.09,8.23 c2.24,0.59,1.98,1.95,1.98,3.51c-0.01,28.37-0.01,56.75-0.01,85.12c0,28.37-0.02,56.74,0.05,85.11c0.01,2.54-0.39,3.18-3.09,2.48 C218.44,319.66,197.66,316.85,176.58,316.77z M361.43,170.19c-10.67-3.71-21.66-5.7-32.98-5.76c-12.04,0.03-23.81,1.75-35.19,5.78 c-4.68,1.66-7.26,5.58-6.78,10.11c0.47,4.5,3.76,7.93,8.3,8.6c2.7,0.4,5.15-0.71,7.65-1.43c10.67-3.09,21.52-4.39,32.64-3.52 c7.28,0.57,14.16,2.74,21.16,4.5c5.36,1.35,10.18-1.38,11.72-6.31C369.49,177.19,366.75,172.04,361.43,170.19z M361.65,275.13 c-10.66-3.77-21.66-5.77-33.63-5.95c-11.28,0.07-22.93,1.86-34.26,5.7c-3.52,1.19-6.08,3.3-7.01,6.98 c-1.83,7.28,4.57,13.54,11.87,11.52c5.66-1.56,11.26-3.3,17.1-4.08c13.65-1.8,26.96-0.44,40.03,3.93c5.3,1.78,10.5-1.01,12.14-6 C369.52,282.25,366.89,276.98,361.65,275.13z M298.28,241.05c5.45-1.52,10.85-3.22,16.47-4.03c13.95-1.99,27.58-0.72,40.96,3.79 c5.33,1.79,10.49-0.97,12.15-5.97c1.71-5.1-1.04-10.39-6.47-12.26c-10.68-3.67-21.66-5.75-34.9-5.8 c-9.92,0.06-21.47,1.81-32.69,5.67c-2.25,0.77-4.21,1.87-5.61,3.82c-2.31,3.22-2.34,7.67-0.1,10.94 C290.36,240.53,294.34,242.15,298.28,241.05z M361.38,222.59c-10.68-3.67-21.66-5.75-34.9-5.8c-9.92,0.06-21.47,1.81-32.69,5.67 c-2.25,0.77-4.21,1.87-5.61,3.82c-2.31,3.22-2.34,7.67-0.1,10.94c2.28,3.33,6.26,4.94,10.19,3.84c5.45-1.52,10.85-3.22,16.47-4.03 c13.95-1.99,27.58-0.72,40.96,3.79c5.33,1.79,10.49-0.97,12.15-5.97C369.56,229.75,366.81,224.45,361.38,222.59z M361.65,275.13 c-10.66-3.77-21.66-5.77-33.63-5.95c-11.28,0.07-22.93,1.86-34.26,5.7c-3.52,1.19-6.08,3.3-7.01,6.98 c-1.83,7.28,4.57,13.54,11.87,11.52c5.66-1.56,11.26-3.3,17.1-4.08c13.65-1.8,26.96-0.44,40.03,3.93c5.3,1.78,10.5-1.01,12.14-6 C369.52,282.25,366.89,276.98,361.65,275.13z M361.43,170.19c-10.67-3.71-21.66-5.7-32.98-5.76c-12.04,0.03-23.81,1.75-35.19,5.78 c-4.68,1.66-7.26,5.58-6.78,10.11c0.47,4.5,3.76,7.93,8.3,8.6c2.7,0.4,5.15-0.71,7.65-1.43c10.67-3.09,21.52-4.39,32.64-3.52 c7.28,0.57,14.16,2.74,21.16,4.5c5.36,1.35,10.18-1.38,11.72-6.31C369.49,177.19,366.75,172.04,361.43,170.19z M361.43,170.19 c-10.67-3.71-21.66-5.7-32.98-5.76c-12.04,0.03-23.81,1.75-35.19,5.78c-4.68,1.66-7.26,5.58-6.78,10.11c0.47,4.5,3.76,7.93,8.3,8.6 c2.7,0.4,5.15-0.71,7.65-1.43c10.67-3.09,21.52-4.39,32.64-3.52c7.28,0.57,14.16,2.74,21.16,4.5c5.36,1.35,10.18-1.38,11.72-6.31 C369.49,177.19,366.75,172.04,361.43,170.19z M361.65,275.13c-10.66-3.77-21.66-5.77-33.63-5.95c-11.28,0.07-22.93,1.86-34.26,5.7 c-3.52,1.19-6.08,3.3-7.01,6.98c-1.83,7.28,4.57,13.54,11.87,11.52c5.66-1.56,11.26-3.3,17.1-4.08c13.65-1.8,26.96-0.44,40.03,3.93 c5.3,1.78,10.5-1.01,12.14-6C369.52,282.25,366.89,276.98,361.65,275.13z M361.38,222.59c-10.68-3.67-21.66-5.75-34.9-5.8 c-9.92,0.06-21.47,1.81-32.69,5.67c-2.25,0.77-4.21,1.87-5.61,3.82c-2.31,3.22-2.34,7.67-0.1,10.94c2.28,3.33,6.26,4.94,10.19,3.84 c5.45-1.52,10.85-3.22,16.47-4.03c13.95-1.99,27.58-0.72,40.96,3.79c5.33,1.79,10.49-0.97,12.15-5.97 C369.56,229.75,366.81,224.45,361.38,222.59z M361.38,222.59c-10.68-3.67-21.66-5.75-34.9-5.8c-9.92,0.06-21.47,1.81-32.69,5.67 c-2.25,0.77-4.21,1.87-5.61,3.82c-2.31,3.22-2.34,7.67-0.1,10.94c2.28,3.33,6.26,4.94,10.19,3.84c5.45-1.52,10.85-3.22,16.47-4.03 c13.95-1.99,27.58-0.72,40.96,3.79c5.33,1.79,10.49-0.97,12.15-5.97C369.56,229.75,366.81,224.45,361.38,222.59z M361.65,275.13 c-10.66-3.77-21.66-5.77-33.63-5.95c-11.28,0.07-22.93,1.86-34.26,5.7c-3.52,1.19-6.08,3.3-7.01,6.98 c-1.83,7.28,4.57,13.54,11.87,11.52c5.66-1.56,11.26-3.3,17.1-4.08c13.65-1.8,26.96-0.44,40.03,3.93c5.3,1.78,10.5-1.01,12.14-6 C369.52,282.25,366.89,276.98,361.65,275.13z M361.43,170.19c-10.67-3.71-21.66-5.7-32.98-5.76c-12.04,0.03-23.81,1.75-35.19,5.78 c-4.68,1.66-7.26,5.58-6.78,10.11c0.47,4.5,3.76,7.93,8.3,8.6c2.7,0.4,5.15-0.71,7.65-1.43c10.67-3.09,21.52-4.39,32.64-3.52 c7.28,0.57,14.16,2.74,21.16,4.5c5.36,1.35,10.18-1.38,11.72-6.31C369.49,177.19,366.75,172.04,361.43,170.19z M361.43,170.19 c-10.67-3.71-21.66-5.7-32.98-5.76c-12.04,0.03-23.81,1.75-35.19,5.78c-4.68,1.66-7.26,5.58-6.78,10.11c0.47,4.5,3.76,7.93,8.3,8.6 c2.7,0.4,5.15-0.71,7.65-1.43c10.67-3.09,21.52-4.39,32.64-3.52c7.28,0.57,14.16,2.74,21.16,4.5c5.36,1.35,10.18-1.38,11.72-6.31 C369.49,177.19,366.75,172.04,361.43,170.19z M361.65,275.13c-10.66-3.77-21.66-5.77-33.63-5.95c-11.28,0.07-22.93,1.86-34.26,5.7 c-3.52,1.19-6.08,3.3-7.01,6.98c-1.83,7.28,4.57,13.54,11.87,11.52c5.66-1.56,11.26-3.3,17.1-4.08c13.65-1.8,26.96-0.44,40.03,3.93 c5.3,1.78,10.5-1.01,12.14-6C369.52,282.25,366.89,276.98,361.65,275.13z M361.38,222.59c-10.68-3.67-21.66-5.75-34.9-5.8 c-9.92,0.06-21.47,1.81-32.69,5.67c-2.25,0.77-4.21,1.87-5.61,3.82c-2.31,3.22-2.34,7.67-0.1,10.94c2.28,3.33,6.26,4.94,10.19,3.84 c5.45-1.52,10.85-3.22,16.47-4.03c13.95-1.99,27.58-0.72,40.96,3.79c5.33,1.79,10.49-0.97,12.15-5.97 C369.56,229.75,366.81,224.45,361.38,222.59z"></path> <path class="st0" d="M412.89,341.07c-1.11,5.36-4.61,7.77-9.88,7.8c-2.33,0.02-2.44,1.45-2.44,3.14c0,7.89,0.01,15.76,0,23.65 c0,1.26,0.02,2.52-0.02,3.78c-0.22,7.77-5.12,11.97-12.85,10.9c-5.41-0.74-10.78-1.79-16.15-2.81 c-28.19-5.33-56.41-10.52-84.59-15.95c-2.86-0.55-4.44,0.27-5.96,2.64c-7.1,11.09-17.77,16.62-30.5,16.66 c-11.44,0.03-21.31-5.14-27.95-14.74c-2.74-3.96-5.33-4.48-9.67-3.63c-30.42,5.99-60.89,11.75-91.33,17.6 c-4.99,0.96-9.72,0.78-13.05-3.88c-1.98-2.77-2.41-6.01-2.43-9.3c-0.03-8.52,0-17.03-0.02-25.55c0-3.64-0.02-3.64-3.47-2.94 c-7.96,1.62-12.93-2.43-12.93-10.55c-0.01-64.74-0.01-129.5,0-194.25c0-7.16,1.88-9.91,8.67-12.04c18.12-5.7,36.65-9.3,55.56-11.01 c6.91-0.62,13.84-1.15,20.74-1.11c24.06,0.17,47.77,3.33,70.92,10.07c4.01,1.16,7.66,1.15,11.68,0.01 c16.21-4.59,32.7-7.78,49.54-9.01c7.44-0.54,14.88-1.31,22.32-1.11c25.54,0.71,50.63,4.33,75.07,11.99 c4.64,1.45,8.24,3.7,8.71,9.06c-1.37-4.58-4.69-6.85-9.11-8.19c-30.02-9.12-60.64-13.29-91.99-11.28 c-19.54,1.26-38.73,4.69-57.49,10.35c-1.99,0.6-3.78,0.57-5.78-0.02c-29.05-8.6-58.72-12.36-88.98-10.32 c-20.69,1.39-40.98,5.16-60.79,11.4c-6.63,2.09-8.76,5.01-8.76,11.96c-0.01,50.55-0.01,101.1-0.01,151.65v40.36 c0.01,9.22,5.37,13.46,14.06,10.69c3.18-1.02,3.29-0.05,3.26,2.59c-0.13,9.46-0.06,18.92-0.04,28.37c0.02,9.1,4.81,12.9,13.8,11.16 c32.02-6.17,64.07-12.28,96.1-18.44c1.82-0.36,2.93-0.17,4.02,1.71c6.53,11.28,16.72,17.37,29.46,17.41 c12.95,0.06,23.47-5.89,30.23-17.3c1.34-2.27,2.47-2.6,4.9-2.14c33.91,6.42,67.84,12.71,101.77,19 c7.21,1.34,12.11-2.77,12.14-10.15c0.05-10.5,0.02-21,0.02-31.82C406.11,349.26,410.18,346.48,412.89,341.07z"></path> <path class="st0" d="M215.99,287.28c-1.62,5.05-6.92,7.75-12.47,5.88c-13.08-4.42-26.4-5.64-40.04-3.82 c-5.74,0.77-11.24,2.43-16.77,4.07c-4.02,1.19-7.99-0.28-10.33-3.52c-2.29-3.18-2.39-7.67-0.22-10.93c1.4-2.11,3.43-3.29,5.78-4.09 c11.22-3.82,22.77-5.59,34-5.69c11.81,0.15,22.7,2.13,33.3,5.74C214.91,276.84,217.7,281.97,215.99,287.28z"></path> <path class="st0" d="M136.26,237.27c-2.22-3.22-2.23-7.78,0.03-10.94c1.39-1.95,3.33-3.09,5.59-3.86 c11.21-3.85,22.76-5.63,32.22-5.67c13.82,0.02,24.9,2.14,35.67,5.88c5.26,1.82,7.83,6.99,6.24,12.1c-1.54,4.96-6.81,7.82-12.1,6.04 c-13.39-4.5-27-5.79-40.96-3.81c-5.62,0.8-11.02,2.5-16.47,4.01C142.51,242.13,138.52,240.56,136.26,237.27z"></path> <path class="st0" d="M134.72,180.82c-0.6-4.71,1.48-8.58,5.97-10.24c11.42-4.22,23.25-6.23,33.57-6.14 c13.39,0.03,24.59,2.06,35.48,5.81c5.22,1.8,7.84,6.98,6.27,12.08c-1.54,4.98-6.72,7.77-12.08,6.1 c-8.45-2.63-16.97-4.56-25.87-4.76c-9.53-0.22-18.81,1.05-27.89,3.87c-2.29,0.7-4.55,1.66-7.03,1.37 C138.77,188.39,135.25,184.99,134.72,180.82z"></path> <path class="st0" d="M288.08,237.21c-2.24-3.26-2.2-7.72,0.1-10.94c1.4-1.94,3.36-3.04,5.61-3.82c11.22-3.86,22.76-5.6,32.69-5.67 c13.24,0.05,24.22,2.13,34.9,5.8c5.43,1.86,8.18,7.16,6.47,12.26c-1.66,4.99-6.82,7.76-12.15,5.97 c-13.39-4.51-27.01-5.78-40.96-3.79c-5.62,0.81-11.01,2.5-16.47,4.03C294.34,242.15,290.36,240.53,288.08,237.21z"></path> <path class="st0" d="M367.88,287.24c-1.64,4.99-6.83,7.78-12.14,6c-13.07-4.38-26.38-5.74-40.03-3.93 c-5.84,0.77-11.44,2.51-17.1,4.08c-7.3,2.02-13.69-4.24-11.87-11.52c0.92-3.68,3.48-5.79,7.01-6.98 c11.33-3.83,22.98-5.63,34.26-5.7c11.97,0.18,22.97,2.18,33.63,5.95C366.89,276.98,369.52,282.25,367.88,287.24z"></path> <path class="st0" d="M286.48,180.32c-0.48-4.54,2.1-8.45,6.78-10.11c11.39-4.03,23.15-5.74,35.19-5.78 c11.32,0.06,22.31,2.05,32.98,5.76c5.32,1.85,8.06,6.99,6.51,11.96c-1.54,4.93-6.36,7.66-11.72,6.31c-7-1.76-13.88-3.93-21.16-4.5 c-11.13-0.87-21.97,0.43-32.64,3.52c-2.5,0.72-4.95,1.83-7.65,1.43C290.24,188.25,286.95,184.82,286.48,180.32z"></path> <path class="st0" d="M216.01,234.77c-1.54,4.96-6.81,7.82-12.1,6.04c-13.39-4.5-27-5.79-40.96-3.81c-5.62,0.8-11.02,2.5-16.47,4.01 c-3.97,1.11-7.96-0.46-10.22-3.75c-2.22-3.22-2.23-7.78,0.03-10.94c1.39-1.95,3.33-3.09,5.59-3.86 c11.21-3.85,22.76-5.63,32.22-5.67c13.82,0.02,24.9,2.14,35.67,5.88C215.03,224.49,217.59,229.67,216.01,234.77z"></path> <path class="st0" d="M215.99,287.28c-1.62,5.05-6.92,7.75-12.47,5.88c-13.08-4.42-26.4-5.64-40.04-3.82 c-5.74,0.77-11.24,2.43-16.77,4.07c-4.02,1.19-7.99-0.28-10.33-3.52c-2.29-3.18-2.39-7.67-0.22-10.93c1.4-2.11,3.43-3.29,5.78-4.09 c11.22-3.82,22.77-5.59,34-5.69c11.81,0.15,22.7,2.13,33.3,5.74C214.91,276.84,217.7,281.97,215.99,287.28z"></path> <path class="st0" d="M216.01,182.33c-1.54,4.98-6.72,7.77-12.08,6.1c-8.45-2.63-16.97-4.56-25.87-4.76 c-9.53-0.22-18.81,1.05-27.89,3.87c-2.29,0.7-4.55,1.66-7.03,1.37c-4.37-0.51-7.89-3.91-8.42-8.08c-0.6-4.71,1.48-8.58,5.97-10.24 c11.42-4.22,23.25-6.23,33.57-6.14c13.39,0.03,24.59,2.06,35.48,5.81C214.97,172.05,217.59,177.23,216.01,182.33z"></path> <path class="st0" d="M367.88,287.24c-1.64,4.99-6.83,7.78-12.14,6c-13.07-4.38-26.38-5.74-40.03-3.93 c-5.84,0.77-11.44,2.51-17.1,4.08c-7.3,2.02-13.69-4.24-11.87-11.52c0.92-3.68,3.48-5.79,7.01-6.98 c11.33-3.83,22.98-5.63,34.26-5.7c11.97,0.18,22.97,2.18,33.63,5.95C366.89,276.98,369.52,282.25,367.88,287.24z"></path> <path class="st0" d="M367.94,182.16c-1.54,4.93-6.36,7.66-11.72,6.31c-7-1.76-13.88-3.93-21.16-4.5 c-11.13-0.87-21.97,0.43-32.64,3.52c-2.5,0.72-4.95,1.83-7.65,1.43c-4.54-0.67-7.82-4.1-8.3-8.6c-0.48-4.54,2.1-8.45,6.78-10.11 c11.39-4.03,23.15-5.74,35.19-5.78c11.32,0.06,22.31,2.05,32.98,5.76C366.75,172.04,369.49,177.19,367.94,182.16z"></path> <path class="st0" d="M367.86,234.84c-1.66,4.99-6.82,7.76-12.15,5.97c-13.39-4.51-27.01-5.78-40.96-3.79 c-5.62,0.81-11.01,2.5-16.47,4.03c-3.93,1.1-7.92-0.51-10.19-3.84c-2.24-3.26-2.2-7.72,0.1-10.94c1.4-1.94,3.36-3.04,5.61-3.82 c11.22-3.86,22.76-5.6,32.69-5.67c13.24,0.05,24.22,2.13,34.9,5.8C366.81,224.45,369.56,229.75,367.86,234.84z"></path> </g> <circle class="st1" cx="249.98" cy="249.56" r="237.44"></circle> </svg>