<?xml version="1.0" encoding="UTF-8"?> <svg xmlns="http://www.w3.org/2000/svg" xmlns:xlink="http://www.w3.org/1999/xlink" version="1.1" id="Layer_1" x="0px" y="0px" viewBox="0 0 100 100" style="enable-background:new 0 0 100 100;" xml:space="preserve"> <style type="text/css"> .st0{fill:#063852;} .st1{fill:none;stroke:#E01239;stroke-width:6;stroke-miterlimit:10;} </style> <g> <path class="st0" d="M43.28,57.02c-0.3,0.94-1.28,1.44-2.31,1.09c-2.42-0.82-4.9-1.05-7.42-0.71c-1.06,0.14-2.08,0.45-3.11,0.75 c-0.75,0.22-1.48-0.05-1.91-0.65c-0.42-0.59-0.44-1.42-0.04-2.03c0.26-0.39,0.64-0.61,1.07-0.76c2.08-0.71,4.22-1.04,6.3-1.05 c2.19,0.03,4.21,0.39,6.18,1.06C43.08,55.09,43.6,56.04,43.28,57.02z"></path> <path class="st0" d="M28.49,47.75c-0.41-0.6-0.41-1.44,0.01-2.03c0.26-0.36,0.62-0.57,1.04-0.72c2.08-0.71,4.22-1.04,5.98-1.05 c2.56,0,4.62,0.4,6.61,1.09c0.98,0.34,1.45,1.3,1.16,2.24c-0.29,0.92-1.26,1.45-2.24,1.12c-2.48-0.83-5.01-1.07-7.6-0.71 c-1.04,0.15-2.04,0.46-3.05,0.74C29.65,48.65,28.91,48.36,28.49,47.75z"></path> <path class="st0" d="M28.21,37.28c-0.11-0.87,0.27-1.59,1.11-1.9c2.12-0.78,4.31-1.15,6.23-1.14c2.48,0.01,4.56,0.38,6.58,1.08 c0.97,0.33,1.45,1.3,1.16,2.24C43,38.49,42.04,39,41.04,38.69c-1.57-0.49-3.15-0.85-4.8-0.88c-1.77-0.04-3.49,0.19-5.17,0.72 c-0.42,0.13-0.84,0.31-1.3,0.25C28.96,38.69,28.31,38.06,28.21,37.28z"></path> <path class="st0" d="M70.24,45.03c-1.98-0.68-4.02-1.07-6.47-1.08c-1.84,0.01-3.98,0.34-6.06,1.05c-0.42,0.14-0.78,0.35-1.04,0.71 c-0.43,0.6-0.43,1.42-0.02,2.03c0.42,0.62,1.16,0.92,1.89,0.71c1.01-0.28,2.01-0.6,3.05-0.75c2.59-0.37,5.11-0.13,7.6,0.7 c0.99,0.33,1.95-0.18,2.25-1.11C71.76,46.35,71.25,45.37,70.24,45.03z M70.29,54.77c-1.98-0.7-4.02-1.07-6.24-1.1 c-2.09,0.01-4.25,0.35-6.35,1.06c-0.65,0.22-1.13,0.61-1.3,1.3c-0.34,1.35,0.85,2.51,2.2,2.14c1.05-0.29,2.09-0.61,3.17-0.76 c2.53-0.33,5-0.08,7.42,0.73c0.98,0.33,1.95-0.19,2.25-1.11C71.75,56.09,71.26,55.11,70.29,54.77z M70.25,35.31 c-1.98-0.69-4.02-1.06-6.12-1.07c-2.23,0.01-4.41,0.32-6.53,1.07c-0.87,0.31-1.35,1.03-1.26,1.88c0.09,0.83,0.7,1.47,1.54,1.59 c0.5,0.07,0.96-0.13,1.42-0.27c1.98-0.57,3.99-0.81,6.05-0.65c1.35,0.11,2.63,0.51,3.92,0.84c0.99,0.25,1.89-0.26,2.17-1.17 C71.74,36.61,71.23,35.65,70.25,35.31z M70.25,35.31c-1.98-0.69-4.02-1.06-6.12-1.07c-2.23,0.01-4.41,0.32-6.53,1.07 c-0.87,0.31-1.35,1.03-1.26,1.88c0.09,0.83,0.7,1.47,1.54,1.59c0.5,0.07,0.96-0.13,1.42-0.27c1.98-0.57,3.99-0.81,6.05-0.65 c1.35,0.11,2.63,0.51,3.92,0.84c0.99,0.25,1.89-0.26,2.17-1.17C71.74,36.61,71.23,35.65,70.25,35.31z M70.29,54.77 c-1.98-0.7-4.02-1.07-6.24-1.1c-2.09,0.01-4.25,0.35-6.35,1.06c-0.65,0.22-1.13,0.61-1.3,1.3c-0.34,1.35,0.85,2.51,2.2,2.14 c1.05-0.29,2.09-0.61,3.17-0.76c2.53-0.33,5-0.08,7.42,0.73c0.98,0.33,1.95-0.19,2.25-1.11C71.75,56.09,71.26,55.11,70.29,54.77z M70.24,45.03c-1.98-0.68-4.02-1.07-6.47-1.08c-1.84,0.01-3.98,0.34-6.06,1.05c-0.42,0.14-0.78,0.35-1.04,0.71 c-0.43,0.6-0.43,1.42-0.02,2.03c0.42,0.62,1.16,0.92,1.89,0.71c1.01-0.28,2.01-0.6,3.05-0.75c2.59-0.37,5.11-0.13,7.6,0.7 c0.99,0.33,1.95-0.18,2.25-1.11C71.76,46.35,71.25,45.37,70.24,45.03z M70.24,45.03c-1.98-0.68-4.02-1.07-6.47-1.08 c-1.84,0.01-3.98,0.34-6.06,1.05c-0.42,0.14-0.78,0.35-1.04,0.71c-0.43,0.6-0.43,1.42-0.02,2.03c0.42,0.62,1.16,0.92,1.89,0.71 c1.01-0.28,2.01-0.6,3.05-0.75c2.59-0.37,5.11-0.13,7.6,0.7c0.99,0.33,1.95-0.18,2.25-1.11C71.76,46.35,71.25,45.37,70.24,45.03z M70.29,54.77c-1.98-0.7-4.02-1.07-6.24-1.1c-2.09,0.01-4.25,0.35-6.35,1.06c-0.65,0.22-1.13,0.61-1.3,1.3 c-0.34,1.35,0.85,2.51,2.2,2.14c1.05-0.29,2.09-0.61,3.17-0.76c2.53-0.33,5-0.08,7.42,0.73c0.98,0.33,1.95-0.19,2.25-1.11 C71.75,56.09,71.26,55.11,70.29,54.77z M70.25,35.31c-1.98-0.69-4.02-1.06-6.12-1.07c-2.23,0.01-4.41,0.32-6.53,1.07 c-0.87,0.31-1.35,1.03-1.26,1.88c0.09,0.83,0.7,1.47,1.54,1.59c0.5,0.07,0.96-0.13,1.42-0.27c1.98-0.57,3.99-0.81,6.05-0.65 c1.35,0.11,2.63,0.51,3.92,0.84c0.99,0.25,1.89-0.26,2.17-1.17C71.74,36.61,71.23,35.65,70.25,35.31z M57.89,38.78 c0.5,0.07,0.96-0.13,1.42-0.27c1.98-0.57,3.99-0.81,6.05-0.65c1.35,0.11,2.63,0.51,3.92,0.84c0.99,0.25,1.89-0.26,2.17-1.17 c0.29-0.92-0.22-1.88-1.21-2.22c-1.98-0.69-4.02-1.06-6.12-1.07c-2.23,0.01-4.41,0.32-6.53,1.07c-0.87,0.31-1.35,1.03-1.26,1.88 C56.44,38.02,57.05,38.66,57.89,38.78z M70.29,54.77c-1.98-0.7-4.02-1.07-6.24-1.1c-2.09,0.01-4.25,0.35-6.35,1.06 c-0.65,0.22-1.13,0.61-1.3,1.3c-0.34,1.35,0.85,2.51,2.2,2.14c1.05-0.29,2.09-0.61,3.17-0.76c2.53-0.33,5-0.08,7.42,0.73 c0.98,0.33,1.95-0.19,2.25-1.11C71.75,56.09,71.26,55.11,70.29,54.77z M58.54,48.45c1.01-0.28,2.01-0.6,3.05-0.75 c2.59-0.37,5.11-0.13,7.6,0.7c0.99,0.33,1.95-0.18,2.25-1.11c0.32-0.95-0.19-1.93-1.2-2.27c-1.98-0.68-4.02-1.07-6.47-1.08 c-1.84,0.01-3.98,0.34-6.06,1.05c-0.42,0.14-0.78,0.35-1.04,0.71c-0.43,0.6-0.43,1.42-0.02,2.03 C57.07,48.35,57.81,48.65,58.54,48.45z M78.18,28.13c-4.53-1.42-9.19-2.09-13.92-2.22c-1.38-0.04-2.76,0.11-4.14,0.21 c-3.12,0.23-6.18,0.82-9.19,1.67c-0.74,0.21-1.42,0.21-2.17,0c-4.29-1.25-8.69-1.83-13.15-1.87c-1.28-0.01-2.57,0.09-3.85,0.21 c-3.51,0.32-6.94,0.98-10.3,2.04c-1.26,0.4-1.61,0.91-1.61,2.23c0,12.01,0,24.01,0,36.02c0,1.51,0.92,2.26,2.4,1.96 c0.64-0.13,0.64-0.13,0.64,0.55c0,1.58,0,3.16,0,4.74c0,0.61,0.08,1.21,0.45,1.72c0.62,0.86,1.49,0.9,2.42,0.72 c5.65-1.08,11.3-2.15,16.94-3.26c0.81-0.16,1.28-0.06,1.79,0.67c1.23,1.78,3.06,2.74,5.18,2.73c2.36-0.01,4.34-1.03,5.66-3.09 c0.28-0.44,0.57-0.59,1.1-0.49c5.22,1.01,10.46,1.97,15.68,2.96c1,0.19,1.99,0.38,2.99,0.52c1.43,0.2,2.34-0.58,2.38-2.02 c0.01-0.23,0-0.47,0-0.7c0-1.46,0-2.92,0-4.39c0-0.32,0.02-0.58,0.45-0.58c0.98-0.01,1.62-0.45,1.83-1.45V29.81 C79.7,28.82,79.04,28.4,78.18,28.13z M75.62,64c-3.86-1-7.79-1.51-11.78-1.51c-3.95,0.01-7.84,0.53-11.66,1.52 c-0.41,0.11-0.56,0.1-0.56-0.41c0.02-10.56,0.01-21.12,0-31.68c0-0.35,0.09-0.5,0.44-0.59c4.89-1.34,9.85-1.91,14.91-1.54 c3.02,0.22,5.97,0.78,8.9,1.55c0.41,0.11,0.38,0.35,0.38,0.65c0,4.97,0,9.94,0,14.91v0.93c0,5.22-0.01,10.44,0.01,15.67 C76.25,64.02,76.17,64.14,75.62,64z M73.37,72.05c-3.89-0.74-7.79-1.46-11.69-2.19c-1.72-0.32-3.43-0.66-5.16-0.96 c-0.3-0.05-0.4-0.16-0.36-0.44c0.01-0.1,0-0.19,0-0.29c0-1.43,0-1.42,1.43-1.63c2.33-0.34,4.68-0.53,6.05-0.5 c3.95,0.06,6.87,0.46,9.77,1.08c0.28,0.06,0.39,0.17,0.38,0.46c-0.01,1.38-0.02,2.76,0,4.15C73.81,72.1,73.69,72.11,73.37,72.05z M52.6,70.02c-0.11,1.42-1.44,2.53-2.9,2.48c-1.5-0.05-2.72-1.26-2.75-2.71c-0.01-0.6,0.01-1.21-0.01-1.81 c-0.01-0.32,0.02-0.45,0.41-0.34c0.86,0.24,1.69,0.72,2.58,0.63c0.87-0.09,1.72-0.42,2.67-0.68C52.61,68.43,52.66,69.23,52.6,70.02 z M43.29,68.87c-0.32,0.31-0.98,0.25-1.5,0.35c-4.98,0.96-9.96,1.91-14.94,2.86c-0.04,0.01-0.08,0-0.16,0c0-1.6,0-3.19,0-4.78 c0-0.22,0.07-0.28,0.29-0.33c3.64-0.76,7.31-1.08,11.02-0.87c1.61,0.09,3.21,0.29,4.81,0.53c0.43,0.06,0.68,0.16,0.61,0.66 C43.34,67.84,43.65,68.53,43.29,68.87z M35.97,62.49c-3.87-0.01-7.69,0.45-11.45,1.39c-1.06,0.27-1.06,0.26-1.06-0.82 c0-10.33,0-20.66-0.01-30.98c0-0.5,0.13-0.67,0.62-0.81c4.95-1.35,9.98-1.87,15.09-1.47c2.9,0.23,5.74,0.79,8.55,1.53 c0.42,0.11,0.37,0.36,0.37,0.65c0,5.26,0,10.52,0,15.78c0,5.26,0,10.52,0.01,15.78c0,0.47-0.07,0.59-0.57,0.46 C43.73,63.03,39.88,62.51,35.97,62.49z M70.25,35.31c-1.98-0.69-4.02-1.06-6.12-1.07c-2.23,0.01-4.41,0.32-6.53,1.07 c-0.87,0.31-1.35,1.03-1.26,1.88c0.09,0.83,0.7,1.47,1.54,1.59c0.5,0.07,0.96-0.13,1.42-0.27c1.98-0.57,3.99-0.81,6.05-0.65 c1.35,0.11,2.63,0.51,3.92,0.84c0.99,0.25,1.89-0.26,2.17-1.17C71.74,36.61,71.23,35.65,70.25,35.31z M70.29,54.77 c-1.98-0.7-4.02-1.07-6.24-1.1c-2.09,0.01-4.25,0.35-6.35,1.06c-0.65,0.22-1.13,0.61-1.3,1.3c-0.34,1.35,0.85,2.51,2.2,2.14 c1.05-0.29,2.09-0.61,3.17-0.76c2.53-0.33,5-0.08,7.42,0.73c0.98,0.33,1.95-0.19,2.25-1.11C71.75,56.09,71.26,55.11,70.29,54.77z M58.54,48.45c1.01-0.28,2.01-0.6,3.05-0.75c2.59-0.37,5.11-0.13,7.6,0.7c0.99,0.33,1.95-0.18,2.25-1.11 c0.32-0.95-0.19-1.93-1.2-2.27c-1.98-0.68-4.02-1.07-6.47-1.08c-1.84,0.01-3.98,0.34-6.06,1.05c-0.42,0.14-0.78,0.35-1.04,0.71 c-0.43,0.6-0.43,1.42-0.02,2.03C57.07,48.35,57.81,48.65,58.54,48.45z M70.24,45.03c-1.98-0.68-4.02-1.07-6.47-1.08 c-1.84,0.01-3.98,0.34-6.06,1.05c-0.42,0.14-0.78,0.35-1.04,0.71c-0.43,0.6-0.43,1.42-0.02,2.03c0.42,0.62,1.16,0.92,1.89,0.71 c1.01-0.28,2.01-0.6,3.05-0.75c2.59-0.37,5.11-0.13,7.6,0.7c0.99,0.33,1.95-0.18,2.25-1.11C71.76,46.35,71.25,45.37,70.24,45.03z M70.29,54.77c-1.98-0.7-4.02-1.07-6.24-1.1c-2.09,0.01-4.25,0.35-6.35,1.06c-0.65,0.22-1.13,0.61-1.3,1.3 c-0.34,1.35,0.85,2.51,2.2,2.14c1.05-0.29,2.09-0.61,3.17-0.76c2.53-0.33,5-0.08,7.42,0.73c0.98,0.33,1.95-0.19,2.25-1.11 C71.75,56.09,71.26,55.11,70.29,54.77z M70.25,35.31c-1.98-0.69-4.02-1.06-6.12-1.07c-2.23,0.01-4.41,0.32-6.53,1.07 c-0.87,0.31-1.35,1.03-1.26,1.88c0.09,0.83,0.7,1.47,1.54,1.59c0.5,0.07,0.96-0.13,1.42-0.27c1.98-0.57,3.99-0.81,6.05-0.65 c1.35,0.11,2.63,0.51,3.92,0.84c0.99,0.25,1.89-0.26,2.17-1.17C71.74,36.61,71.23,35.65,70.25,35.31z M70.25,35.31 c-1.98-0.69-4.02-1.06-6.12-1.07c-2.23,0.01-4.41,0.32-6.53,1.07c-0.87,0.31-1.35,1.03-1.26,1.88c0.09,0.83,0.7,1.47,1.54,1.59 c0.5,0.07,0.96-0.13,1.42-0.27c1.98-0.57,3.99-0.81,6.05-0.65c1.35,0.11,2.63,0.51,3.92,0.84c0.99,0.25,1.89-0.26,2.17-1.17 C71.74,36.61,71.23,35.65,70.25,35.31z M70.29,54.77c-1.98-0.7-4.02-1.07-6.24-1.1c-2.09,0.01-4.25,0.35-6.35,1.06 c-0.65,0.22-1.13,0.61-1.3,1.3c-0.34,1.35,0.85,2.51,2.2,2.14c1.05-0.29,2.09-0.61,3.17-0.76c2.53-0.33,5-0.08,7.42,0.73 c0.98,0.33,1.95-0.19,2.25-1.11C71.75,56.09,71.26,55.11,70.29,54.77z M70.24,45.03c-1.98-0.68-4.02-1.07-6.47-1.08 c-1.84,0.01-3.98,0.34-6.06,1.05c-0.42,0.14-0.78,0.35-1.04,0.71c-0.43,0.6-0.43,1.42-0.02,2.03c0.42,0.62,1.16,0.92,1.89,0.71 c1.01-0.28,2.01-0.6,3.05-0.75c2.59-0.37,5.11-0.13,7.6,0.7c0.99,0.33,1.95-0.18,2.25-1.11C71.76,46.35,71.25,45.37,70.24,45.03z M70.24,45.03c-1.98-0.68-4.02-1.07-6.47-1.08c-1.84,0.01-3.98,0.34-6.06,1.05c-0.42,0.14-0.78,0.35-1.04,0.71 c-0.43,0.6-0.43,1.42-0.02,2.03c0.42,0.62,1.16,0.92,1.89,0.71c1.01-0.28,2.01-0.6,3.05-0.75c2.59-0.37,5.11-0.13,7.6,0.7 c0.99,0.33,1.95-0.18,2.25-1.11C71.76,46.35,71.25,45.37,70.24,45.03z M70.29,54.77c-1.98-0.7-4.02-1.07-6.24-1.1 c-2.09,0.01-4.25,0.35-6.35,1.06c-0.65,0.22-1.13,0.61-1.3,1.3c-0.34,1.35,0.85,2.51,2.2,2.14c1.05-0.29,2.09-0.61,3.17-0.76 c2.53-0.33,5-0.08,7.42,0.73c0.98,0.33,1.95-0.19,2.25-1.11C71.75,56.09,71.26,55.11,70.29,54.77z M70.25,35.31 c-1.98-0.69-4.02-1.06-6.12-1.07c-2.23,0.01-4.41,0.32-6.53,1.07c-0.87,0.31-1.35,1.03-1.26,1.88c0.09,0.83,0.7,1.47,1.54,1.59 c0.5,0.07,0.96-0.13,1.42-0.27c1.98-0.57,3.99-0.81,6.05-0.65c1.35,0.11,2.63,0.51,3.92,0.84c0.99,0.25,1.89-0.26,2.17-1.17 C71.74,36.61,71.23,35.65,70.25,35.31z M70.25,35.31c-1.98-0.69-4.02-1.06-6.12-1.07c-2.23,0.01-4.41,0.32-6.53,1.07 c-0.87,0.31-1.35,1.03-1.26,1.88c0.09,0.83,0.7,1.47,1.54,1.59c0.5,0.07,0.96-0.13,1.42-0.27c1.98-0.57,3.99-0.81,6.05-0.65 c1.35,0.11,2.63,0.51,3.92,0.84c0.99,0.25,1.89-0.26,2.17-1.17C71.74,36.61,71.23,35.65,70.25,35.31z M70.29,54.77 c-1.98-0.7-4.02-1.07-6.24-1.1c-2.09,0.01-4.25,0.35-6.35,1.06c-0.65,0.22-1.13,0.61-1.3,1.3c-0.34,1.35,0.85,2.51,2.2,2.14 c1.05-0.29,2.09-0.61,3.17-0.76c2.53-0.33,5-0.08,7.42,0.73c0.98,0.33,1.95-0.19,2.25-1.11C71.75,56.09,71.26,55.11,70.29,54.77z M70.24,45.03c-1.98-0.68-4.02-1.07-6.47-1.08c-1.84,0.01-3.98,0.34-6.06,1.05c-0.42,0.14-0.78,0.35-1.04,0.71 c-0.43,0.6-0.43,1.42-0.02,2.03c0.42,0.62,1.16,0.92,1.89,0.71c1.01-0.28,2.01-0.6,3.05-0.75c2.59-0.37,5.11-0.13,7.6,0.7 c0.99,0.33,1.95-0.18,2.25-1.11C71.76,46.35,71.25,45.37,70.24,45.03z"></path> <path class="st0" d="M79.79,67c-0.21,0.99-0.86,1.44-1.83,1.45c-0.43,0-0.45,0.27-0.45,0.58c0,1.46,0,2.92,0,4.39 c0,0.23,0,0.47,0,0.7c-0.04,1.44-0.95,2.22-2.38,2.02c-1-0.14-2-0.33-2.99-0.52c-5.23-0.99-10.46-1.95-15.68-2.96 c-0.53-0.1-0.82,0.05-1.1,0.49c-1.32,2.06-3.3,3.08-5.66,3.09c-2.12,0.01-3.95-0.95-5.18-2.73c-0.51-0.73-0.99-0.83-1.79-0.67 c-5.64,1.11-11.29,2.18-16.94,3.26c-0.93,0.18-1.8,0.15-2.42-0.72c-0.37-0.51-0.45-1.11-0.45-1.72c-0.01-1.58,0-3.16,0-4.74 c0-0.68,0-0.68-0.64-0.55c-1.48,0.3-2.4-0.45-2.4-1.96c0-12.01,0-24.01,0-36.02c0-1.33,0.35-1.84,1.61-2.23 c3.36-1.06,6.8-1.72,10.3-2.04c1.28-0.12,2.57-0.21,3.85-0.21c4.46,0.03,8.86,0.62,13.15,1.87c0.74,0.22,1.42,0.21,2.17,0 c3.01-0.85,6.06-1.44,9.19-1.67c1.38-0.1,2.76-0.24,4.14-0.21c4.74,0.13,9.39,0.8,13.92,2.22c0.86,0.27,1.53,0.69,1.61,1.68 c-0.25-0.85-0.87-1.27-1.69-1.52c-5.57-1.69-11.24-2.46-17.06-2.09c-3.62,0.23-7.18,0.87-10.66,1.92c-0.37,0.11-0.7,0.11-1.07,0 c-5.39-1.6-10.89-2.29-16.5-1.91c-3.84,0.26-7.6,0.96-11.27,2.11c-1.23,0.39-1.62,0.93-1.62,2.22c0,9.37,0,18.75,0,28.12v7.48 c0,1.71,1,2.5,2.61,1.98c0.59-0.19,0.61-0.01,0.6,0.48c-0.02,1.75-0.01,3.51-0.01,5.26c0,1.69,0.89,2.39,2.56,2.07 c5.94-1.14,11.88-2.28,17.82-3.42c0.34-0.07,0.54-0.03,0.75,0.32c1.21,2.09,3.1,3.22,5.46,3.23c2.4,0.01,4.35-1.09,5.61-3.21 c0.25-0.42,0.46-0.48,0.91-0.4c6.29,1.19,12.58,2.36,18.87,3.52c1.34,0.25,2.25-0.51,2.25-1.88c0.01-1.95,0-3.89,0-5.9 C78.53,68.52,79.29,68,79.79,67z"></path> <path class="st0" d="M43.28,57.02c-0.3,0.94-1.28,1.44-2.31,1.09c-2.42-0.82-4.9-1.05-7.42-0.71c-1.06,0.14-2.08,0.45-3.11,0.75 c-0.75,0.22-1.48-0.05-1.91-0.65c-0.42-0.59-0.44-1.42-0.04-2.03c0.26-0.39,0.64-0.61,1.07-0.76c2.08-0.71,4.22-1.04,6.3-1.05 c2.19,0.03,4.21,0.39,6.18,1.06C43.08,55.09,43.6,56.04,43.28,57.02z"></path> <path class="st0" d="M28.49,47.75c-0.41-0.6-0.41-1.44,0.01-2.03c0.26-0.36,0.62-0.57,1.04-0.72c2.08-0.71,4.22-1.04,5.98-1.05 c2.56,0,4.62,0.4,6.61,1.09c0.98,0.34,1.45,1.3,1.16,2.24c-0.29,0.92-1.26,1.45-2.24,1.12c-2.48-0.83-5.01-1.07-7.6-0.71 c-1.04,0.15-2.04,0.46-3.05,0.74C29.65,48.65,28.91,48.36,28.49,47.75z"></path> <path class="st0" d="M28.21,37.28c-0.11-0.87,0.27-1.59,1.11-1.9c2.12-0.78,4.31-1.15,6.23-1.14c2.48,0.01,4.56,0.38,6.58,1.08 c0.97,0.33,1.45,1.3,1.16,2.24C43,38.49,42.04,39,41.04,38.69c-1.57-0.49-3.15-0.85-4.8-0.88c-1.77-0.04-3.49,0.19-5.17,0.72 c-0.42,0.13-0.84,0.31-1.3,0.25C28.96,38.69,28.31,38.06,28.21,37.28z"></path> <path class="st0" d="M56.65,47.74c-0.41-0.61-0.41-1.43,0.02-2.03c0.26-0.36,0.62-0.56,1.04-0.71c2.08-0.72,4.22-1.04,6.06-1.05 c2.46,0.01,4.49,0.4,6.47,1.08c1.01,0.35,1.52,1.33,1.2,2.27c-0.31,0.93-1.26,1.44-2.25,1.11c-2.48-0.84-5.01-1.07-7.6-0.7 c-1.04,0.15-2.04,0.46-3.05,0.75C57.81,48.65,57.07,48.35,56.65,47.74z"></path> <path class="st0" d="M71.44,57.02c-0.3,0.92-1.27,1.44-2.25,1.11c-2.42-0.81-4.89-1.06-7.42-0.73c-1.08,0.14-2.12,0.47-3.17,0.76 c-1.35,0.38-2.54-0.79-2.2-2.14c0.17-0.68,0.65-1.07,1.3-1.3c2.1-0.71,4.26-1.04,6.35-1.06c2.22,0.03,4.26,0.4,6.24,1.1 C71.26,55.11,71.75,56.09,71.44,57.02z"></path> <path class="st0" d="M56.35,37.19c-0.09-0.84,0.39-1.57,1.26-1.88c2.11-0.75,4.29-1.07,6.53-1.07c2.1,0.01,4.14,0.38,6.12,1.07 c0.99,0.34,1.49,1.3,1.21,2.22c-0.29,0.91-1.18,1.42-2.17,1.17c-1.3-0.33-2.57-0.73-3.92-0.84c-2.06-0.16-4.07,0.08-6.05,0.65 c-0.46,0.13-0.92,0.34-1.42,0.27C57.05,38.66,56.44,38.02,56.35,37.19z"></path> <path class="st0" d="M43.28,47.29c-0.29,0.92-1.26,1.45-2.24,1.12c-2.48-0.83-5.01-1.07-7.6-0.71c-1.04,0.15-2.04,0.46-3.05,0.74 c-0.74,0.21-1.48-0.08-1.9-0.7c-0.41-0.6-0.41-1.44,0.01-2.03c0.26-0.36,0.62-0.57,1.04-0.72c2.08-0.71,4.22-1.04,5.98-1.05 c2.56,0,4.62,0.4,6.61,1.09C43.1,45.38,43.58,46.34,43.28,47.29z"></path> <path class="st0" d="M43.28,57.02c-0.3,0.94-1.28,1.44-2.31,1.09c-2.42-0.82-4.9-1.05-7.42-0.71c-1.06,0.14-2.08,0.45-3.11,0.75 c-0.75,0.22-1.48-0.05-1.91-0.65c-0.42-0.59-0.44-1.42-0.04-2.03c0.26-0.39,0.64-0.61,1.07-0.76c2.08-0.71,4.22-1.04,6.3-1.05 c2.19,0.03,4.21,0.39,6.18,1.06C43.08,55.09,43.6,56.04,43.28,57.02z"></path> <path class="st0" d="M43.28,37.56C43,38.49,42.04,39,41.04,38.69c-1.57-0.49-3.15-0.85-4.8-0.88c-1.77-0.04-3.49,0.19-5.17,0.72 c-0.42,0.13-0.84,0.31-1.3,0.25c-0.81-0.1-1.46-0.73-1.56-1.5c-0.11-0.87,0.27-1.59,1.11-1.9c2.12-0.78,4.31-1.15,6.23-1.14 c2.48,0.01,4.56,0.38,6.58,1.08C43.09,35.66,43.57,36.62,43.28,37.56z"></path> <path class="st0" d="M71.44,57.02c-0.3,0.92-1.27,1.44-2.25,1.11c-2.42-0.81-4.89-1.06-7.42-0.73c-1.08,0.14-2.12,0.47-3.17,0.76 c-1.35,0.38-2.54-0.79-2.2-2.14c0.17-0.68,0.65-1.07,1.3-1.3c2.1-0.71,4.26-1.04,6.35-1.06c2.22,0.03,4.26,0.4,6.24,1.1 C71.26,55.11,71.75,56.09,71.44,57.02z"></path> <path class="st0" d="M71.46,37.53c-0.29,0.91-1.18,1.42-2.17,1.17c-1.3-0.33-2.57-0.73-3.92-0.84c-2.06-0.16-4.07,0.08-6.05,0.65 c-0.46,0.13-0.92,0.34-1.42,0.27c-0.84-0.12-1.45-0.76-1.54-1.59c-0.09-0.84,0.39-1.57,1.26-1.88c2.11-0.75,4.29-1.07,6.53-1.07 c2.1,0.01,4.14,0.38,6.12,1.07C71.23,35.65,71.74,36.61,71.46,37.53z"></path> <path class="st0" d="M71.44,47.3c-0.31,0.93-1.26,1.44-2.25,1.11c-2.48-0.84-5.01-1.07-7.6-0.7c-1.04,0.15-2.04,0.46-3.05,0.75 c-0.73,0.2-1.47-0.1-1.89-0.71c-0.41-0.61-0.41-1.43,0.02-2.03c0.26-0.36,0.62-0.56,1.04-0.71c2.08-0.72,4.22-1.04,6.06-1.05 c2.46,0.01,4.49,0.4,6.47,1.08C71.25,45.37,71.76,46.35,71.44,47.3z"></path> </g> <circle class="st1" cx="49.58" cy="50.03" r="44.03"></circle> </svg> 