<svg xmlns="http://www.w3.org/2000/svg" xmlns:xlink="http://www.w3.org/1999/xlink" id="Layer_1" x="0px" y="0px" viewBox="0 0 500 500" style="enable-background:new 0 0 500 500;" xml:space="preserve"> <style type="text/css"> .st0{fill:none;stroke:#E01239;stroke-width:15;stroke-miterlimit:10;} .st1{fill:#063852;} </style> <circle class="st0" cx="249.98" cy="249.56" r="237.44"></circle> <g> <path class="st1" d="M217.15,275.17c0-3.19,0.06-6.39-0.01-9.58c-0.14-5.93-4.25-10.06-10.2-10.13c-6.4-0.08-12.8-0.08-19.2,0 c-5.64,0.07-9.94,3.98-10.16,9.58c-0.25,6.79-0.24,13.61-0.01,20.4c0.19,5.65,4.42,9.53,10.07,9.59c6.51,0.08,13.01,0.08,19.51,0 c5.77-0.07,9.83-4.18,9.97-9.97C217.21,281.76,217.15,278.47,217.15,275.17z M205.39,285.19c-5.37-0.09-10.73-0.08-16.09-0.01 c-1.52,0.02-1.95-0.51-1.9-1.97c0.09-2.78,0.02-5.56,0.02-8.34c0-2.47,0.08-4.95-0.02-7.42c-0.07-1.56,0.38-2.18,2.06-2.14 c5.26,0.1,10.53,0.11,15.79-0.01c1.75-0.03,2.03,0.67,2,2.18c-0.07,5.25-0.07,10.5,0.01,15.76 C207.27,284.65,206.95,285.21,205.39,285.19z"></path> <path class="st1" d="M217.13,325.02c-0.09-5.92-4.21-10.04-10.18-10.14c-6.39-0.1-12.79-0.1-19.19,0 c-5.67,0.1-9.96,3.98-10.16,9.56c-0.26,6.79-0.25,13.6-0.02,20.39c0.21,5.75,4.53,9.54,10.37,9.6c3.1,0.03,6.19,0.01,9.29,0.01 c3.2,0,6.39,0.02,9.59-0.01c6.18-0.07,10.23-4.05,10.3-10.26C217.21,337.78,217.22,331.39,217.13,325.02z M207.25,342.69 c0.02,1.52-0.49,1.92-1.94,1.87c-2.78-0.1-5.57-0.03-8.35-0.03c-2.47,0-4.95-0.07-7.42,0.03c-1.53,0.06-2.2-0.31-2.17-2.02 c0.11-5.25,0.1-10.5,0.01-15.75c-0.02-1.66,0.56-2.09,2.14-2.07c5.26,0.08,10.52,0.07,15.77,0c1.48-0.02,1.97,0.41,1.95,1.91 C207.18,331.99,207.17,337.34,207.25,342.69z"></path> <path class="st1" d="M217.13,206.28c-0.07-6.08-4.24-10.18-10.39-10.26c-6.29-0.07-12.59-0.08-18.89,0 c-5.77,0.08-10.1,4.06-10.28,9.79c-0.22,6.68-0.22,13.39,0,20.08c0.19,5.78,4.43,9.63,10.27,9.73c3.2,0.06,6.4,0.01,9.6,0.01 c3.09,0,6.19,0.04,9.29-0.01c6.25-0.09,10.31-4.02,10.4-10.19C217.21,219.06,217.21,212.67,217.13,206.28z M207.22,215.92 c0,2.68-0.06,5.36,0.02,8.04c0.04,1.3-0.31,1.79-1.7,1.78c-5.48-0.07-10.94-0.07-16.42,0c-1.39,0.01-1.74-0.52-1.73-1.82 c0.06-5.36,0.07-10.72,0-16.08c-0.02-1.44,0.4-1.98,1.92-1.96c5.37,0.07,10.74,0.09,16.1-0.01c1.62-0.03,1.87,0.65,1.83,2.01 C207.17,210.56,207.22,213.24,207.22,215.92z"></path> <path class="st1" d="M217.14,146.94c-0.07-6.12-4.19-10.22-10.35-10.3c-6.29-0.07-12.6-0.07-18.89,0.01 c-5.95,0.07-10.2,4.1-10.35,10.04c-0.17,6.58-0.18,13.18,0.02,19.77c0.18,5.81,4.41,9.67,10.23,9.76c3.2,0.05,6.4,0.01,9.6,0.01 c3.2,0,6.4,0.04,9.6-0.01c5.97-0.1,10.05-4.13,10.13-10.12C217.21,159.71,217.21,153.33,217.14,146.94z M207.25,164.59 c0.02,1.32-0.34,1.81-1.72,1.76c-2.68-0.09-5.37-0.02-8.05-0.02c-2.58,0-5.17-0.07-7.74,0.02c-1.62,0.07-2.41-0.25-2.36-2.14 c0.12-5.14,0.11-10.3,0.01-15.45c-0.03-1.74,0.46-2.32,2.25-2.27c5.16,0.11,10.32,0.09,15.47,0.01c1.57-0.03,2.18,0.35,2.14,2.03 C207.16,153.88,207.19,159.23,207.25,164.59z"></path> <path class="st1" d="M231.96,146.53c0.01-3.09,2.1-4.96,5.81-4.97c14.35-0.03,28.7-0.03,43.05,0c3.76,0.01,5.73,1.81,5.72,5 c-0.01,3.19-1.94,4.87-5.76,4.89c-7.22,0.02-14.45,0.01-21.68,0.01c-7.12,0-14.24,0.02-21.36-0.01 C234.01,151.43,231.95,149.64,231.96,146.53z"></path> <path class="st1" d="M286.83,166.23c0.09,3.21-2.02,5.03-5.97,5.05c-7.12,0.02-14.24,0.01-21.36,0.01 c-7.12,0-14.24,0.02-21.36-0.01c-3.83-0.02-5.82-1.68-5.9-4.79c-0.07-3.23,2.05-5.09,5.95-5.1c14.23-0.02,28.48-0.02,42.72,0 C284.63,161.39,286.74,163.18,286.83,166.23z"></path> <path class="st1" d="M232.03,265.89c-0.24-2.36,0.72-4.2,3.07-5.14c1.1-0.44,2.23-0.38,3.36-0.38h101.27c0.72,0,1.46-0.02,2.17,0.1 c2.72,0.47,4.35,2.52,4.11,5.27c-0.25,2.75-1.79,4.29-4.57,4.51c-0.93,0.07-1.85,0.02-2.79,0.02h-99.73 c-0.93,0-1.87,0.05-2.78-0.07C233.61,269.89,232.27,268.26,232.03,265.89z"></path> <path class="st1" d="M345.97,323.08c1.23,3.66-1.08,6.59-5.29,6.61c-10.93,0.05-21.88,0.02-32.82,0.02h-68.43 c-1.03,0-2.08,0.06-3.09-0.09c-2.47-0.36-3.84-1.9-4.04-4.34c-0.19-2.38,0.69-4.27,3.12-5.07c0.85-0.28,1.81-0.38,2.72-0.38 c34.06-0.02,68.12-0.01,102.18-0.03C342.89,319.79,345.07,320.39,345.97,323.08z"></path> <path class="st1" d="M345.99,342.98c1.16,3.68-1.17,6.51-5.43,6.52c-16.52,0.03-33.06,0.02-49.58,0.02h-1.86 c-16.94,0-33.88-0.01-50.82,0.01c-2.14,0-4.14-0.17-5.4-2.24c-1.98-3.28-0.14-7.13,3.69-7.63c0.71-0.09,1.44-0.05,2.17-0.05 c33.67,0,67.35,0.01,101.03-0.02C342.54,339.59,345.03,339.93,345.99,342.98z"></path> <path class="st1" d="M346.21,285.57c-0.26,2.73-1.75,4.32-4.57,4.48c-0.83,0.05-1.65,0.02-2.48,0.02h-50.21 c-16.95,0-33.89-0.02-50.84,0.02c-2.88,0.01-5.1-0.69-5.85-3.8c-0.65-2.71,0.87-5.3,3.56-5.94c0.89-0.21,1.84-0.18,2.77-0.18 c33.69-0.01,67.37-0.01,101.05,0c0.83,0,1.67-0.04,2.47,0.09C344.82,280.71,346.47,282.82,346.21,285.57z"></path> <path class="st1" d="M238.14,200.99c35.62-0.01,71.24,0,106.86-0.02c2.83,0,5.19,0.66,5.93,3.75c0.83,3.43-1.29,6.1-4.98,6.14 c-7.33,0.07-14.66,0.02-21.99,0.03h-32.52c-17.76-0.01-35.51-0.02-53.28,0.02c-2.68,0-4.93-0.47-5.84-3.42 c-0.87-2.81,0.53-5.51,3.37-6.27C236.47,201.02,237.32,200.99,238.14,200.99z"></path> <path class="st1" d="M351.16,225.36c0.22,3.16-1.64,5.25-5,5.3c-5.88,0.08-11.77,0.03-17.66,0.03h-36.87 c-17.87,0-35.74-0.02-53.61,0.02c-2.72,0-4.9-0.62-5.68-3.6c-0.78-2.99,0.88-5.67,3.91-6.22c0.8-0.14,1.65-0.1,2.47-0.1 c35.32,0,70.65-0.01,105.97,0C348.93,220.79,350.92,222.22,351.16,225.36z"></path> <path class="st1" d="M375.96,163.85c0-3.42-1.13-5.76-3.61-8.01c-20.26-18.53-40.45-37.14-60.59-55.8 c-2.27-2.1-4.57-3.08-7.71-3.07c-48.05,0.07-96.1,0.05-144.15,0.06c-8.54,0-12.17,3.67-12.17,12.31c-0.01,45.37,0,90.75,0,136.13 c0,45.48-0.01,90.96,0,136.44c0,8.61,3.58,12.17,12.26,12.17c67.89,0,135.77-0.07,203.66,0.11c7.7,0.02,12.36-4.54,12.35-12.22 C375.82,309.25,375.87,236.56,375.96,163.85z M311.42,114.45c0-0.16,0.17-0.31,0.44-0.79c17.1,15.76,34.13,31.45,51.18,47.15 c-0.41,0.99-1.25,0.55-1.87,0.55c-15.7,0.02-31.4,0.02-47.1,0.02c-1.48,0.01-2.74,0.24-2.72-2.08 C311.46,144.35,311.41,129.4,311.42,114.45z M362.81,384.23c-67.26-0.07-134.52-0.08-201.78,0.02c-2.99,0.01-3.44-0.95-3.43-3.61 c0.07-45.07,0.05-90.12,0.05-135.18c0-45.07,0.02-90.12-0.06-135.18c-0.01-2.65,0.5-3.43,3.33-3.42c45.77,0.1,91.54,0.1,137.31,0 c2.84-0.01,3.32,0.79,3.32,3.42c-0.12,19.28-0.02,38.56-0.13,57.84c-0.01,2.54,0.58,3.25,3.18,3.23c19.42-0.12,38.85,0,58.27-0.13 c2.66-0.02,3.16,0.74,3.16,3.25c-0.07,68.88-0.07,137.76,0.01,206.64C366.04,383.76,365.3,384.23,362.81,384.23z"></path> <path class="st1" d="M217.15,275.17c0-3.19,0.06-6.39-0.01-9.58c-0.14-5.93-4.25-10.06-10.2-10.13c-6.4-0.08-12.8-0.08-19.2,0 c-5.64,0.07-9.94,3.98-10.16,9.58c-0.25,6.79-0.24,13.61-0.01,20.4c0.19,5.65,4.42,9.53,10.07,9.59c6.51,0.08,13.01,0.08,19.51,0 c5.77-0.07,9.83-4.18,9.97-9.97C217.21,281.76,217.15,278.47,217.15,275.17z M205.39,285.19c-5.37-0.09-10.73-0.08-16.09-0.01 c-1.52,0.02-1.95-0.51-1.9-1.97c0.09-2.78,0.02-5.56,0.02-8.34c0-2.47,0.08-4.95-0.02-7.42c-0.07-1.56,0.38-2.18,2.06-2.14 c5.26,0.1,10.53,0.11,15.79-0.01c1.75-0.03,2.03,0.67,2,2.18c-0.07,5.25-0.07,10.5,0.01,15.76 C207.27,284.65,206.95,285.21,205.39,285.19z"></path> <path class="st1" d="M217.13,325.02c-0.09-5.92-4.21-10.04-10.18-10.14c-6.39-0.1-12.79-0.1-19.19,0 c-5.67,0.1-9.96,3.98-10.16,9.56c-0.26,6.79-0.25,13.6-0.02,20.39c0.21,5.75,4.53,9.54,10.37,9.6c3.1,0.03,6.19,0.01,9.29,0.01 c3.2,0,6.39,0.02,9.59-0.01c6.18-0.07,10.23-4.05,10.3-10.26C217.21,337.78,217.22,331.39,217.13,325.02z M207.25,342.69 c0.02,1.52-0.49,1.92-1.94,1.87c-2.78-0.1-5.57-0.03-8.35-0.03c-2.47,0-4.95-0.07-7.42,0.03c-1.53,0.06-2.2-0.31-2.17-2.02 c0.11-5.25,0.1-10.5,0.01-15.75c-0.02-1.66,0.56-2.09,2.14-2.07c5.26,0.08,10.52,0.07,15.77,0c1.48-0.02,1.97,0.41,1.95,1.91 C207.18,331.99,207.17,337.34,207.25,342.69z"></path> <path class="st1" d="M217.13,206.28c-0.07-6.08-4.24-10.18-10.39-10.26c-6.29-0.07-12.59-0.08-18.89,0 c-5.77,0.08-10.1,4.06-10.28,9.79c-0.22,6.68-0.22,13.39,0,20.08c0.19,5.78,4.43,9.63,10.27,9.73c3.2,0.06,6.4,0.01,9.6,0.01 c3.09,0,6.19,0.04,9.29-0.01c6.25-0.09,10.31-4.02,10.4-10.19C217.21,219.06,217.21,212.67,217.13,206.28z M207.22,215.92 c0,2.68-0.06,5.36,0.02,8.04c0.04,1.3-0.31,1.79-1.7,1.78c-5.48-0.07-10.94-0.07-16.42,0c-1.39,0.01-1.74-0.52-1.73-1.82 c0.06-5.36,0.07-10.72,0-16.08c-0.02-1.44,0.4-1.98,1.92-1.96c5.37,0.07,10.74,0.09,16.1-0.01c1.62-0.03,1.87,0.65,1.83,2.01 C207.17,210.56,207.22,213.24,207.22,215.92z"></path> <path class="st1" d="M217.14,146.94c-0.07-6.12-4.19-10.22-10.35-10.3c-6.29-0.07-12.6-0.07-18.89,0.01 c-5.95,0.07-10.2,4.1-10.35,10.04c-0.17,6.58-0.18,13.18,0.02,19.77c0.18,5.81,4.41,9.67,10.23,9.76c3.2,0.05,6.4,0.01,9.6,0.01 c3.2,0,6.4,0.04,9.6-0.01c5.97-0.1,10.05-4.13,10.13-10.12C217.21,159.71,217.21,153.33,217.14,146.94z M207.25,164.59 c0.02,1.32-0.34,1.81-1.72,1.76c-2.68-0.09-5.37-0.02-8.05-0.02c-2.58,0-5.17-0.07-7.74,0.02c-1.62,0.07-2.41-0.25-2.36-2.14 c0.12-5.14,0.11-10.3,0.01-15.45c-0.03-1.74,0.46-2.32,2.25-2.27c5.16,0.11,10.32,0.09,15.47,0.01c1.57-0.03,2.18,0.35,2.14,2.03 C207.16,153.88,207.19,159.23,207.25,164.59z"></path> <path class="st1" d="M231.96,146.53c0.01-3.09,2.1-4.96,5.81-4.97c14.35-0.03,28.7-0.03,43.05,0c3.76,0.01,5.73,1.81,5.72,5 c-0.01,3.19-1.94,4.87-5.76,4.89c-7.22,0.02-14.45,0.01-21.68,0.01c-7.12,0-14.24,0.02-21.36-0.01 C234.01,151.43,231.95,149.64,231.96,146.53z"></path> <path class="st1" d="M286.83,166.23c0.09,3.21-2.02,5.03-5.97,5.05c-7.12,0.02-14.24,0.01-21.36,0.01 c-7.12,0-14.24,0.02-21.36-0.01c-3.83-0.02-5.82-1.68-5.9-4.79c-0.07-3.23,2.05-5.09,5.95-5.1c14.23-0.02,28.48-0.02,42.72,0 C284.63,161.39,286.74,163.18,286.83,166.23z"></path> <path class="st1" d="M232.03,265.89c-0.24-2.36,0.72-4.2,3.07-5.14c1.1-0.44,2.23-0.38,3.36-0.38h101.27c0.72,0,1.46-0.02,2.17,0.1 c2.72,0.47,4.35,2.52,4.11,5.27c-0.25,2.75-1.79,4.29-4.57,4.51c-0.93,0.07-1.85,0.02-2.79,0.02h-99.73 c-0.93,0-1.87,0.05-2.78-0.07C233.61,269.89,232.27,268.26,232.03,265.89z"></path> <path class="st1" d="M345.97,323.08c1.23,3.66-1.08,6.59-5.29,6.61c-10.93,0.05-21.88,0.02-32.82,0.02h-68.43 c-1.03,0-2.08,0.06-3.09-0.09c-2.47-0.36-3.84-1.9-4.04-4.34c-0.19-2.38,0.69-4.27,3.12-5.07c0.85-0.28,1.81-0.38,2.72-0.38 c34.06-0.02,68.12-0.01,102.18-0.03C342.89,319.79,345.07,320.39,345.97,323.08z"></path> <path class="st1" d="M345.99,342.98c1.16,3.68-1.17,6.51-5.43,6.52c-16.52,0.03-33.06,0.02-49.58,0.02h-1.86 c-16.94,0-33.88-0.01-50.82,0.01c-2.14,0-4.14-0.17-5.4-2.24c-1.98-3.28-0.14-7.13,3.69-7.63c0.71-0.09,1.44-0.05,2.17-0.05 c33.67,0,67.35,0.01,101.03-0.02C342.54,339.59,345.03,339.93,345.99,342.98z"></path> <path class="st1" d="M346.21,285.57c-0.26,2.73-1.75,4.32-4.57,4.48c-0.83,0.05-1.65,0.02-2.48,0.02h-50.21 c-16.95,0-33.89-0.02-50.84,0.02c-2.88,0.01-5.1-0.69-5.85-3.8c-0.65-2.71,0.87-5.3,3.56-5.94c0.89-0.21,1.84-0.18,2.77-0.18 c33.69-0.01,67.37-0.01,101.05,0c0.83,0,1.67-0.04,2.47,0.09C344.82,280.71,346.47,282.82,346.21,285.57z"></path> <path class="st1" d="M238.14,200.99c35.62-0.01,71.24,0,106.86-0.02c2.83,0,5.19,0.66,5.93,3.75c0.83,3.43-1.29,6.1-4.98,6.14 c-7.33,0.07-14.66,0.02-21.99,0.03h-32.52c-17.76-0.01-35.51-0.02-53.28,0.02c-2.68,0-4.93-0.47-5.84-3.42 c-0.87-2.81,0.53-5.51,3.37-6.27C236.47,201.02,237.32,200.99,238.14,200.99z"></path> <path class="st1" d="M351.16,225.36c0.22,3.16-1.64,5.25-5,5.3c-5.88,0.08-11.77,0.03-17.66,0.03h-36.87 c-17.87,0-35.74-0.02-53.61,0.02c-2.72,0-4.9-0.62-5.68-3.6c-0.78-2.99,0.88-5.67,3.91-6.22c0.8-0.14,1.65-0.1,2.47-0.1 c35.32,0,70.65-0.01,105.97,0C348.93,220.79,350.92,222.22,351.16,225.36z"></path> <path class="st1" d="M375.96,163.85c0-3.42-1.13-5.76-3.61-8.01c-20.26-18.53-40.45-37.14-60.59-55.8 c-2.27-2.1-4.57-3.08-7.71-3.07c-48.05,0.07-96.1,0.05-144.15,0.06c-8.54,0-12.17,3.67-12.17,12.31c-0.01,45.37,0,90.75,0,136.13 c0,45.48-0.01,90.96,0,136.44c0,8.61,3.58,12.17,12.26,12.17c67.89,0,135.77-0.07,203.66,0.11c7.7,0.02,12.36-4.54,12.35-12.22 C375.82,309.25,375.87,236.56,375.96,163.85z M311.42,114.45c0-0.16,0.17-0.31,0.44-0.79c17.1,15.76,34.13,31.45,51.18,47.15 c-0.41,0.99-1.25,0.55-1.87,0.55c-15.7,0.02-31.4,0.02-47.1,0.02c-1.48,0.01-2.74,0.24-2.72-2.08 C311.46,144.35,311.41,129.4,311.42,114.45z M362.81,384.23c-67.26-0.07-134.52-0.08-201.78,0.02c-2.99,0.01-3.44-0.95-3.43-3.61 c0.07-45.07,0.05-90.12,0.05-135.18c0-45.07,0.02-90.12-0.06-135.18c-0.01-2.65,0.5-3.43,3.33-3.42c45.77,0.1,91.54,0.1,137.31,0 c2.84-0.01,3.32,0.79,3.32,3.42c-0.12,19.28-0.02,38.56-0.13,57.84c-0.01,2.54,0.58,3.25,3.18,3.23c19.42-0.12,38.85,0,58.27-0.13 c2.66-0.02,3.16,0.74,3.16,3.25c-0.07,68.88-0.07,137.76,0.01,206.64C366.04,383.76,365.3,384.23,362.81,384.23z"></path> <path class="st1" d="M217.15,275.17c0-3.19,0.06-6.39-0.01-9.58c-0.14-5.93-4.25-10.06-10.2-10.13c-6.4-0.08-12.8-0.08-19.2,0 c-5.64,0.07-9.94,3.98-10.16,9.58c-0.25,6.79-0.24,13.61-0.01,20.4c0.19,5.65,4.42,9.53,10.07,9.59c6.51,0.08,13.01,0.08,19.51,0 c5.77-0.07,9.83-4.18,9.97-9.97C217.21,281.76,217.15,278.47,217.15,275.17z M205.39,285.19c-5.37-0.09-10.73-0.08-16.09-0.01 c-1.52,0.02-1.95-0.51-1.9-1.97c0.09-2.78,0.02-5.56,0.02-8.34c0-2.47,0.08-4.95-0.02-7.42c-0.07-1.56,0.38-2.18,2.06-2.14 c5.26,0.1,10.53,0.11,15.79-0.01c1.75-0.03,2.03,0.67,2,2.18c-0.07,5.25-0.07,10.5,0.01,15.76 C207.27,284.65,206.95,285.21,205.39,285.19z"></path> <path class="st1" d="M217.13,325.02c-0.09-5.92-4.21-10.04-10.18-10.14c-6.39-0.1-12.79-0.1-19.19,0 c-5.67,0.1-9.96,3.98-10.16,9.56c-0.26,6.79-0.25,13.6-0.02,20.39c0.21,5.75,4.53,9.54,10.37,9.6c3.1,0.03,6.19,0.01,9.29,0.01 c3.2,0,6.39,0.02,9.59-0.01c6.18-0.07,10.23-4.05,10.3-10.26C217.21,337.78,217.22,331.39,217.13,325.02z M207.25,342.69 c0.02,1.52-0.49,1.92-1.94,1.87c-2.78-0.1-5.57-0.03-8.35-0.03c-2.47,0-4.95-0.07-7.42,0.03c-1.53,0.06-2.2-0.31-2.17-2.02 c0.11-5.25,0.1-10.5,0.01-15.75c-0.02-1.66,0.56-2.09,2.14-2.07c5.26,0.08,10.52,0.07,15.77,0c1.48-0.02,1.97,0.41,1.95,1.91 C207.18,331.99,207.17,337.34,207.25,342.69z"></path> <path class="st1" d="M217.13,206.28c-0.07-6.08-4.24-10.18-10.39-10.26c-6.29-0.07-12.59-0.08-18.89,0 c-5.77,0.08-10.1,4.06-10.28,9.79c-0.22,6.68-0.22,13.39,0,20.08c0.19,5.78,4.43,9.63,10.27,9.73c3.2,0.06,6.4,0.01,9.6,0.01 c3.09,0,6.19,0.04,9.29-0.01c6.25-0.09,10.31-4.02,10.4-10.19C217.21,219.06,217.21,212.67,217.13,206.28z M207.22,215.92 c0,2.68-0.06,5.36,0.02,8.04c0.04,1.3-0.31,1.79-1.7,1.78c-5.48-0.07-10.94-0.07-16.42,0c-1.39,0.01-1.74-0.52-1.73-1.82 c0.06-5.36,0.07-10.72,0-16.08c-0.02-1.44,0.4-1.98,1.92-1.96c5.37,0.07,10.74,0.09,16.1-0.01c1.62-0.03,1.87,0.65,1.83,2.01 C207.17,210.56,207.22,213.24,207.22,215.92z"></path> <path class="st1" d="M217.14,146.94c-0.07-6.12-4.19-10.22-10.35-10.3c-6.29-0.07-12.6-0.07-18.89,0.01 c-5.95,0.07-10.2,4.1-10.35,10.04c-0.17,6.58-0.18,13.18,0.02,19.77c0.18,5.81,4.41,9.67,10.23,9.76c3.2,0.05,6.4,0.01,9.6,0.01 c3.2,0,6.4,0.04,9.6-0.01c5.97-0.1,10.05-4.13,10.13-10.12C217.21,159.71,217.21,153.33,217.14,146.94z M207.25,164.59 c0.02,1.32-0.34,1.81-1.72,1.76c-2.68-0.09-5.37-0.02-8.05-0.02c-2.58,0-5.17-0.07-7.74,0.02c-1.62,0.07-2.41-0.25-2.36-2.14 c0.12-5.14,0.11-10.3,0.01-15.45c-0.03-1.74,0.46-2.32,2.25-2.27c5.16,0.11,10.32,0.09,15.47,0.01c1.57-0.03,2.18,0.35,2.14,2.03 C207.16,153.88,207.19,159.23,207.25,164.59z"></path> <path class="st1" d="M231.96,146.53c0.01-3.09,2.1-4.96,5.81-4.97c14.35-0.03,28.7-0.03,43.05,0c3.76,0.01,5.73,1.81,5.72,5 c-0.01,3.19-1.94,4.87-5.76,4.89c-7.22,0.02-14.45,0.01-21.68,0.01c-7.12,0-14.24,0.02-21.36-0.01 C234.01,151.43,231.95,149.64,231.96,146.53z"></path> <path class="st1" d="M286.83,166.23c0.09,3.21-2.02,5.03-5.97,5.05c-7.12,0.02-14.24,0.01-21.36,0.01 c-7.12,0-14.24,0.02-21.36-0.01c-3.83-0.02-5.82-1.68-5.9-4.79c-0.07-3.23,2.05-5.09,5.95-5.1c14.23-0.02,28.48-0.02,42.72,0 C284.63,161.39,286.74,163.18,286.83,166.23z"></path> <path class="st1" d="M232.03,265.89c-0.24-2.36,0.72-4.2,3.07-5.14c1.1-0.44,2.23-0.38,3.36-0.38h101.27c0.72,0,1.46-0.02,2.17,0.1 c2.72,0.47,4.35,2.52,4.11,5.27c-0.25,2.75-1.79,4.29-4.57,4.51c-0.93,0.07-1.85,0.02-2.79,0.02h-99.73 c-0.93,0-1.87,0.05-2.78-0.07C233.61,269.89,232.27,268.26,232.03,265.89z"></path> <path class="st1" d="M345.97,323.08c1.23,3.66-1.08,6.59-5.29,6.61c-10.93,0.05-21.88,0.02-32.82,0.02h-68.43 c-1.03,0-2.08,0.06-3.09-0.09c-2.47-0.36-3.84-1.9-4.04-4.34c-0.19-2.38,0.69-4.27,3.12-5.07c0.85-0.28,1.81-0.38,2.72-0.38 c34.06-0.02,68.12-0.01,102.18-0.03C342.89,319.79,345.07,320.39,345.97,323.08z"></path> <path class="st1" d="M345.99,342.98c1.16,3.68-1.17,6.51-5.43,6.52c-16.52,0.03-33.06,0.02-49.58,0.02h-1.86 c-16.94,0-33.88-0.01-50.82,0.01c-2.14,0-4.14-0.17-5.4-2.24c-1.98-3.28-0.14-7.13,3.69-7.63c0.71-0.09,1.44-0.05,2.17-0.05 c33.67,0,67.35,0.01,101.03-0.02C342.54,339.59,345.03,339.93,345.99,342.98z"></path> <path class="st1" d="M346.21,285.57c-0.26,2.73-1.75,4.32-4.57,4.48c-0.83,0.05-1.65,0.02-2.48,0.02h-50.21 c-16.95,0-33.89-0.02-50.84,0.02c-2.88,0.01-5.1-0.69-5.85-3.8c-0.65-2.71,0.87-5.3,3.56-5.94c0.89-0.21,1.84-0.18,2.77-0.18 c33.69-0.01,67.37-0.01,101.05,0c0.83,0,1.67-0.04,2.47,0.09C344.82,280.71,346.47,282.82,346.21,285.57z"></path> <path class="st1" d="M238.14,200.99c35.62-0.01,71.24,0,106.86-0.02c2.83,0,5.19,0.66,5.93,3.75c0.83,3.43-1.29,6.1-4.98,6.14 c-7.33,0.07-14.66,0.02-21.99,0.03h-32.52c-17.76-0.01-35.51-0.02-53.28,0.02c-2.68,0-4.93-0.47-5.84-3.42 c-0.87-2.81,0.53-5.51,3.37-6.27C236.47,201.02,237.32,200.99,238.14,200.99z"></path> <path class="st1" d="M346.16,230.66c-5.88,0.08-11.77,0.03-17.66,0.03h-36.87c-17.87,0-35.74-0.02-53.61,0.02 c-2.72,0-4.9-0.62-5.68-3.6c-0.78-2.99,0.88-5.67,3.91-6.22c0.8-0.14,1.65-0.1,2.47-0.1c35.32,0,70.65-0.01,105.97,0 c4.23,0,6.23,1.43,6.46,4.57C351.38,228.52,349.52,230.61,346.16,230.66z"></path> <path class="st1" d="M345.95,210.86c-7.33,0.07-14.66,0.02-21.99,0.03h-32.52c-17.76-0.01-35.51-0.02-53.28,0.02 c-2.68,0-4.93-0.47-5.84-3.42c-0.87-2.81,0.53-5.51,3.37-6.27c0.78-0.21,1.63-0.23,2.45-0.23c35.62-0.01,71.24,0,106.86-0.02 c2.83,0,5.19,0.66,5.93,3.75C351.76,208.15,349.64,210.82,345.95,210.86z"></path> <path class="st1" d="M346.16,230.66c-5.88,0.08-11.77,0.03-17.66,0.03h-36.87c-17.87,0-35.74-0.02-53.61,0.02 c-2.72,0-4.9-0.62-5.68-3.6c-0.78-2.99,0.88-5.67,3.91-6.22c0.8-0.14,1.65-0.1,2.47-0.1c35.32,0,70.65-0.01,105.97,0 c4.23,0,6.23,1.43,6.46,4.57C351.38,228.52,349.52,230.61,346.16,230.66z"></path> <path class="st1" d="M346.21,285.57c-0.26,2.73-1.75,4.32-4.57,4.48c-0.83,0.05-1.65,0.02-2.48,0.02h-50.21 c-16.95,0-33.89-0.02-50.84,0.02c-2.88,0.01-5.1-0.69-5.85-3.8c-0.65-2.71,0.87-5.3,3.56-5.94c0.89-0.21,1.84-0.18,2.77-0.18 c33.69-0.01,67.37-0.01,101.05,0c0.83,0,1.67-0.04,2.47,0.09C344.82,280.71,346.47,282.82,346.21,285.57z"></path> <path class="st1" d="M340.57,349.5c-16.52,0.03-33.06,0.02-49.58,0.02h-1.86c-16.94,0-33.88-0.01-50.82,0.01 c-2.14,0-4.14-0.17-5.4-2.24c-1.98-3.28-0.14-7.13,3.69-7.63c0.71-0.09,1.44-0.05,2.17-0.05c33.67,0,67.35,0.01,101.03-0.02 c2.75,0,5.24,0.34,6.21,3.39C347.15,346.66,344.83,349.49,340.57,349.5z"></path> <path class="st1" d="M346,265.73c-0.25,2.75-1.79,4.29-4.57,4.51c-0.93,0.07-1.85,0.02-2.79,0.02h-99.73 c-0.93,0-1.87,0.05-2.78-0.07c-2.52-0.31-3.87-1.94-4.11-4.31c-0.24-2.36,0.72-4.2,3.07-5.14c1.1-0.44,2.23-0.38,3.36-0.38h101.27 c0.72,0,1.46-0.02,2.17,0.1C344.61,260.94,346.24,262.99,346,265.73z"></path> <path class="st1" d="M340.68,329.69c-10.93,0.05-21.88,0.02-32.82,0.02h-68.43c-1.03,0-2.08,0.06-3.09-0.09 c-2.47-0.36-3.84-1.9-4.04-4.34c-0.19-2.38,0.69-4.27,3.12-5.07c0.85-0.28,1.81-0.38,2.72-0.38c34.06-0.02,68.12-0.01,102.18-0.03 c2.58,0,4.76,0.6,5.66,3.29C347.2,326.75,344.89,329.67,340.68,329.69z"></path> <path class="st1" d="M217.13,206.28c-0.07-6.08-4.24-10.18-10.39-10.26c-6.29-0.07-12.59-0.08-18.89,0 c-5.77,0.08-10.1,4.06-10.28,9.79c-0.22,6.68-0.22,13.39,0,20.08c0.19,5.78,4.43,9.63,10.27,9.73c3.2,0.06,6.4,0.01,9.6,0.01 c3.09,0,6.19,0.04,9.29-0.01c6.25-0.09,10.31-4.02,10.4-10.19C217.21,219.06,217.21,212.67,217.13,206.28z M207.22,215.92 c0,2.68-0.06,5.36,0.02,8.04c0.04,1.3-0.31,1.79-1.7,1.78c-5.48-0.07-10.94-0.07-16.42,0c-1.39,0.01-1.74-0.52-1.73-1.82 c0.06-5.36,0.07-10.72,0-16.08c-0.02-1.44,0.4-1.98,1.92-1.96c5.37,0.07,10.74,0.09,16.1-0.01c1.62-0.03,1.87,0.65,1.83,2.01 C207.17,210.56,207.22,213.24,207.22,215.92z"></path> <path class="st1" d="M217.14,146.94c-0.07-6.12-4.19-10.22-10.35-10.3c-6.29-0.07-12.6-0.07-18.89,0.01 c-5.95,0.07-10.2,4.1-10.35,10.04c-0.17,6.58-0.18,13.18,0.02,19.77c0.18,5.81,4.41,9.67,10.23,9.76c3.2,0.05,6.4,0.01,9.6,0.01 c3.2,0,6.4,0.04,9.6-0.01c5.97-0.1,10.05-4.13,10.13-10.12C217.21,159.71,217.21,153.33,217.14,146.94z M207.25,164.59 c0.02,1.32-0.34,1.81-1.72,1.76c-2.68-0.09-5.37-0.02-8.05-0.02c-2.58,0-5.17-0.07-7.74,0.02c-1.62,0.07-2.41-0.25-2.36-2.14 c0.12-5.14,0.11-10.3,0.01-15.45c-0.03-1.74,0.46-2.32,2.25-2.27c5.16,0.11,10.32,0.09,15.47,0.01c1.57-0.03,2.18,0.35,2.14,2.03 C207.16,153.88,207.19,159.23,207.25,164.59z"></path> <path class="st1" d="M217.15,275.17c0-3.19,0.06-6.39-0.01-9.58c-0.14-5.93-4.25-10.06-10.2-10.13c-6.4-0.08-12.8-0.08-19.2,0 c-5.64,0.07-9.94,3.98-10.16,9.58c-0.25,6.79-0.24,13.61-0.01,20.4c0.19,5.65,4.42,9.53,10.07,9.59c6.51,0.08,13.01,0.08,19.51,0 c5.77-0.07,9.83-4.18,9.97-9.97C217.21,281.76,217.15,278.47,217.15,275.17z M205.39,285.19c-5.37-0.09-10.73-0.08-16.09-0.01 c-1.52,0.02-1.95-0.51-1.9-1.97c0.09-2.78,0.02-5.56,0.02-8.34c0-2.47,0.08-4.95-0.02-7.42c-0.07-1.56,0.38-2.18,2.06-2.14 c5.26,0.1,10.53,0.11,15.79-0.01c1.75-0.03,2.03,0.67,2,2.18c-0.07,5.25-0.07,10.5,0.01,15.76 C207.27,284.65,206.95,285.21,205.39,285.19z"></path> <path class="st1" d="M217.13,325.02c-0.09-5.92-4.21-10.04-10.18-10.14c-6.39-0.1-12.79-0.1-19.19,0 c-5.67,0.1-9.96,3.98-10.16,9.56c-0.26,6.79-0.25,13.6-0.02,20.39c0.21,5.75,4.53,9.54,10.37,9.6c3.1,0.03,6.19,0.01,9.29,0.01 c3.2,0,6.39,0.02,9.59-0.01c6.18-0.07,10.23-4.05,10.3-10.26C217.21,337.78,217.22,331.39,217.13,325.02z M207.25,342.69 c0.02,1.52-0.49,1.92-1.94,1.87c-2.78-0.1-5.57-0.03-8.35-0.03c-2.47,0-4.95-0.07-7.42,0.03c-1.53,0.06-2.2-0.31-2.17-2.02 c0.11-5.25,0.1-10.5,0.01-15.75c-0.02-1.66,0.56-2.09,2.14-2.07c5.26,0.08,10.52,0.07,15.77,0c1.48-0.02,1.97,0.41,1.95,1.91 C207.18,331.99,207.17,337.34,207.25,342.69z"></path> <path class="st1" d="M286.54,146.55c-0.01,3.19-1.94,4.87-5.76,4.89c-7.22,0.02-14.45,0.01-21.68,0.01 c-7.12,0-14.24,0.02-21.36-0.01c-3.73-0.02-5.79-1.8-5.78-4.91c0.01-3.09,2.1-4.96,5.81-4.97c14.35-0.03,28.7-0.03,43.05,0 C284.58,141.57,286.55,143.37,286.54,146.55z"></path> <path class="st1" d="M286.83,166.23c0.09,3.21-2.02,5.03-5.97,5.05c-7.12,0.02-14.24,0.01-21.36,0.01 c-7.12,0-14.24,0.02-21.36-0.01c-3.83-0.02-5.82-1.68-5.9-4.79c-0.07-3.23,2.05-5.09,5.95-5.1c14.23-0.02,28.48-0.02,42.72,0 C284.63,161.39,286.74,163.18,286.83,166.23z"></path> </g> </svg>